<svg xmlns="http://www.w3.org/2000/svg" width="583" height="169" fill="none" viewBox="0 0 583 169"><path fill="#fff" d="M0 134.554C0 128.102 1.26821 122.364 3.80466 117.339C6.40009 112.252 10.0573 108.313 14.7763 105.522C19.4951 102.668 24.9221 101.241 31.0567 101.241C38.843 101.241 45.3905 103.443 50.6994 107.848C56.0082 112.19 59.4295 118.115 60.9631 125.621H42.2937C41.1729 123.139 39.6099 121.247 37.6042 119.945C35.6577 118.642 33.3866 117.991 30.7912 117.991C26.7802 117.991 23.5653 119.51 21.1469 122.55C18.7873 125.528 17.6076 129.529 17.6076 134.554C17.6076 139.641 18.7873 143.704 21.1469 146.744C23.5653 149.722 26.7802 151.21 30.7912 151.21C33.3866 151.21 35.6577 150.559 37.6042 149.256C39.6099 147.954 41.1729 146.062 42.2937 143.58H60.9631C59.4295 151.086 56.0082 157.042 50.6994 161.446C45.3905 165.789 38.843 167.96 31.0567 167.96C24.9221 167.96 19.4951 166.564 14.7763 163.773C10.0573 160.919 6.40009 156.98 3.80466 151.955C1.26821 146.868 0 141.068 0 134.554ZM77.9348 110.453C74.8674 110.453 72.3899 109.585 70.5024 107.848C68.6738 106.049 67.7595 103.816 67.7595 101.148C67.7595 98.4186 68.6738 96.1542 70.5024 94.3553C72.3899 92.5563 74.8674 91.6567 77.9348 91.6567C80.9431 91.6567 83.3615 92.5563 85.1902 94.3553C87.0777 96.1542 88.0216 98.4186 88.0216 101.148C88.0216 103.816 87.0777 106.049 85.1902 107.848C83.3615 109.585 80.9431 110.453 77.9348 110.453ZM86.5174 115.292V167.495H69.1752V115.292H86.5174ZM128.866 114.827C134.588 114.827 139.129 116.843 142.492 120.875C145.854 124.846 147.535 130.243 147.535 137.066V167.495H130.193V139.486C130.193 136.508 129.456 134.182 127.981 132.507C126.506 130.77 124.53 129.901 122.053 129.901C119.457 129.901 117.422 130.77 115.948 132.507C114.473 134.182 113.736 136.508 113.736 139.486V167.495H96.3934V115.292H113.736V122.736C115.269 120.379 117.334 118.487 119.929 117.06C122.525 115.571 125.504 114.827 128.866 114.827ZM204.477 140.789C204.477 142.215 204.388 143.642 204.211 145.069H171.385C171.562 147.923 172.299 150.063 173.597 151.49C174.954 152.854 176.664 153.537 178.729 153.537C181.619 153.537 183.684 152.172 184.922 149.442H203.415C202.648 153.041 201.144 156.266 198.902 159.12C196.72 161.911 193.947 164.114 190.585 165.727C187.223 167.339 183.507 168.146 179.437 168.146C174.541 168.146 170.176 167.06 166.341 164.889C162.566 162.718 159.587 159.616 157.405 155.584C155.281 151.552 154.22 146.806 154.22 141.347C154.22 135.888 155.281 131.173 157.405 127.203C159.528 123.171 162.478 120.069 166.253 117.898C170.087 115.726 174.482 114.641 179.437 114.641C184.332 114.641 188.668 115.695 192.443 117.805C196.218 119.914 199.168 122.953 201.291 126.924C203.415 130.832 204.477 135.454 204.477 140.789ZM186.781 136.229C186.781 133.996 186.073 132.259 184.657 131.018C183.241 129.715 181.472 129.064 179.348 129.064C177.225 129.064 175.484 129.684 174.128 130.925C172.771 132.104 171.886 133.872 171.473 136.229H186.781ZM284.394 101.893V167.495H267.052V131.297L255.284 167.495H240.773L228.917 131.018V167.495H211.574V101.893H232.545L248.206 144.511L263.513 101.893H284.394ZM291.433 141.347C291.433 135.95 292.349 131.235 294.176 127.203C296.065 123.171 298.6 120.069 301.785 117.898C305.03 115.726 308.629 114.641 312.58 114.641C316.002 114.641 318.95 115.354 321.428 116.781C323.905 118.208 325.823 120.131 327.179 122.55V115.292H344.521V167.495H327.179V160.237C325.823 162.656 323.877 164.579 321.339 166.006C318.862 167.433 315.942 168.146 312.58 168.146C308.629 168.146 305.03 167.06 301.785 164.889C298.6 162.718 296.065 159.616 294.176 155.584C292.349 151.49 291.433 146.744 291.433 141.347ZM327.179 141.347C327.179 137.997 326.294 135.361 324.525 133.437C322.815 131.514 320.691 130.553 318.154 130.553C315.559 130.553 313.407 131.514 311.695 133.437C309.985 135.298 309.129 137.935 309.129 141.347C309.129 144.697 309.985 147.364 311.695 149.349C313.407 151.273 315.559 152.234 318.154 152.234C320.691 152.234 322.815 151.273 324.525 149.349C326.294 147.426 327.179 144.759 327.179 141.347ZM383.692 151.955V167.495H376.171C363.487 167.495 357.147 160.888 357.147 147.674V130.46H351.042V115.292H357.147V102.637H374.578V115.292H383.603V130.46H374.578V147.954C374.578 149.38 374.872 150.404 375.463 151.024C376.111 151.645 377.173 151.955 378.648 151.955H383.692ZM408.988 124.504C410.935 121.527 413.293 119.169 416.067 117.432C418.838 115.695 421.818 114.827 425.003 114.827V134.275H420.137C416.361 134.275 413.558 135.05 411.731 136.601C409.902 138.152 408.988 140.851 408.988 144.697V167.495H391.646V115.292H408.988V124.504ZM439.978 110.453C436.913 110.453 434.435 109.585 432.546 107.848C430.719 106.049 429.803 103.816 429.803 101.148C429.803 98.4186 430.719 96.1542 432.546 94.3553C434.435 92.5563 436.913 91.6567 439.978 91.6567C442.987 91.6567 445.407 92.5563 447.234 94.3553C449.123 96.1542 450.065 98.4186 450.065 101.148C450.065 103.816 449.123 106.049 447.234 107.848C445.407 109.585 442.987 110.453 439.978 110.453ZM448.561 115.292V167.495H431.219V115.292H448.561ZM489.406 167.495L480.469 154.374L473.391 167.495H454.368L470.914 140.416L453.66 115.292H473.126L482.062 128.413L489.229 115.292H508.252L491.352 141.905L508.872 167.495H489.406ZM535.144 168.146C530.662 168.146 526.65 167.371 523.11 165.82C519.631 164.207 516.859 162.035 514.793 159.306C512.789 156.514 511.668 153.382 511.431 149.908H528.242C528.479 151.583 529.216 152.885 530.454 153.816C531.693 154.746 533.228 155.212 535.055 155.212C536.471 155.212 537.592 154.902 538.418 154.281C539.245 153.661 539.656 152.854 539.656 151.862C539.656 150.559 538.979 149.598 537.621 148.977C536.265 148.357 534.024 147.674 530.897 146.93C527.357 146.186 524.409 145.348 522.049 144.418C519.691 143.487 517.625 141.967 515.855 139.858C514.145 137.749 513.289 134.895 513.289 131.297C513.289 128.195 514.085 125.404 515.678 122.922C517.271 120.379 519.602 118.363 522.668 116.874C525.796 115.385 529.541 114.641 533.905 114.641C540.395 114.641 545.496 116.316 549.212 119.666C552.928 123.015 555.083 127.42 555.671 132.879H540.01C539.716 131.204 539.008 129.932 537.887 129.064C536.825 128.133 535.38 127.668 533.551 127.668C532.135 127.668 531.045 127.947 530.277 128.506C529.569 129.064 529.216 129.839 529.216 130.832C529.216 132.073 529.895 133.034 531.251 133.717C532.609 134.337 534.79 134.988 537.798 135.671C541.397 136.477 544.377 137.377 546.735 138.369C549.155 139.362 551.247 140.975 553.017 143.208C554.846 145.379 555.76 148.357 555.76 152.141C555.76 155.181 554.906 157.91 553.194 160.33C551.544 162.749 549.155 164.672 546.027 166.099C542.961 167.464 539.333 168.146 535.144 168.146ZM572.693 168.239C569.625 168.239 567.147 167.371 565.26 165.634C563.431 163.835 562.517 161.57 562.517 158.841C562.517 156.111 563.431 153.847 565.26 152.048C567.147 150.249 569.625 149.349 572.693 149.349C575.701 149.349 578.119 150.249 579.948 152.048C581.835 153.847 582.779 156.111 582.779 158.841C582.779 161.508 581.835 163.742 579.948 165.541C578.119 167.339 575.701 168.239 572.693 168.239Z"/><path fill="#FD4746" d="M183.225 64.6929C182.048 65.013 181.014 64.7736 180.123 63.9748C179.232 63.1759 178.517 62.2514 177.978 61.2013C177.439 60.1513 177.106 59.1305 176.981 58.139C176.914 57.0849 177.116 56.4629 177.586 56.2728C179.002 56.3228 180.977 56.1819 183.511 55.8501C186.104 55.456 188.814 54.9987 191.641 54.4785C194.468 53.8963 197.177 53.3149 199.768 52.7345C202.359 52.1541 204.391 51.7028 205.863 51.3801C206.334 51.2519 206.778 51.4962 207.196 52.1131C207.614 52.7301 207.533 53.6922 206.953 54.9999C205.329 58.6738 203.471 62.505 201.378 66.493C199.343 70.4187 197.515 74.2494 195.892 77.9855C194.328 81.7211 193.204 85.2045 192.521 88.4362C191.897 91.7296 192.184 94.5188 193.382 96.804C192.682 97.9267 191.743 98.5238 190.564 98.5959C189.385 98.7302 188.203 98.4298 187.018 97.6954C185.891 96.9605 184.909 95.8523 184.072 94.3704C183.235 92.9507 182.78 91.2176 182.705 89.1711C183.035 86.0043 183.81 83.206 185.03 80.7764C186.309 78.4079 187.825 76.1307 189.578 73.9447C191.331 71.6963 193.171 69.4165 195.1 67.1046C197.088 64.7925 198.955 62.0779 200.701 58.9613L198.949 61.3025C196.67 64.1137 194.096 66.958 191.228 69.8362C188.418 72.6517 185.4 75.1897 182.173 77.4504C179.005 79.7728 175.716 81.6308 172.305 83.0245C168.895 84.4803 165.508 85.1294 162.145 84.9719C158.427 84.8172 155.471 83.9118 153.275 82.2554C151.081 80.6612 149.56 78.5026 148.713 75.7804C147.925 72.9953 147.753 69.7708 148.196 66.1069C148.699 62.4424 149.76 58.494 151.379 54.2617C153.058 50.029 155.236 45.6369 157.915 41.0855C160.652 36.4714 163.831 31.8849 167.454 27.3253C170.55 23.3908 173.707 19.7038 176.925 16.2644C180.143 12.763 183.364 9.78893 186.59 7.34211C189.815 4.83325 193.015 2.91397 196.19 1.58425C199.424 0.254034 202.636 -0.238493 205.824 0.106662C207.063 0.22021 208.277 0.768267 209.464 1.75076C210.71 2.73279 211.753 4.02674 212.591 5.63257C213.488 7.23794 214.092 9.15596 214.405 11.3866C214.716 13.5553 214.587 15.9448 214.017 18.5552C213.505 20.917 212.521 23.4378 211.067 26.1177C209.612 28.7357 207.98 31.2931 206.171 33.7899C204.361 36.2867 202.52 38.5668 200.648 40.6297C198.776 42.6308 197.137 44.1957 195.729 45.3242C195.084 45.826 194.261 46.1433 193.259 46.2759C192.316 46.346 191.283 46.3236 190.162 46.2092C189.099 46.094 188.036 45.8858 186.972 45.5848C185.907 45.2217 184.99 44.8262 184.22 44.3984C183.508 43.9701 183.004 43.5402 182.706 43.1084C182.407 42.6148 182.462 42.18 182.873 41.8043C183.93 41.2369 185.162 40.2959 186.567 38.9813C187.973 37.6665 189.436 36.1653 190.957 34.4773C192.536 32.7889 194.116 31.0074 195.694 29.1329C197.272 27.2585 198.733 25.478 200.077 23.7916C201.421 22.1051 202.559 20.6067 203.493 19.2959C204.486 17.9847 205.157 17.0485 205.507 16.4872C206.788 14.367 207.248 12.7191 206.885 11.5435C206.522 10.3679 205.341 10.1918 203.341 11.0152C199.872 12.4715 196.176 15.0774 192.252 18.833C188.329 22.5885 184.175 27.1215 179.792 32.4318C178.272 34.1817 176.432 36.5857 174.273 39.6438C172.173 42.7016 170.045 46.0075 167.89 49.5619C165.734 53.1165 163.757 56.7313 161.956 60.4067C160.215 64.0818 158.972 67.4112 158.228 70.3954C157.483 73.3175 157.413 75.7064 158.017 77.5623C158.681 79.4178 160.369 80.3032 163.081 80.2181C165.44 80.1359 167.943 79.4943 170.588 78.2933C173.293 77.1536 175.965 75.7041 178.606 73.9447C181.306 72.1227 183.945 70.1151 186.524 67.9218C189.161 65.7281 191.592 63.5053 193.817 61.253C191.876 62.0139 189.935 62.7128 187.993 63.3497C186.051 63.9866 184.462 64.4342 183.225 64.6929ZM201.225 58.0264C201.107 58.1513 200.99 58.2144 200.872 58.2155L201.05 58.3069L201.225 58.0264ZM247.415 51.3997L245.223 54.0237C243.879 55.6482 242.475 57.242 241.013 58.8052C239.55 60.3688 237.909 61.7473 236.089 62.9417C235.62 63.2557 234.945 63.7268 234.065 64.3547C233.185 64.9204 232.45 65.2059 231.86 65.2108C231.565 65.2754 231.271 65.3089 230.975 65.3112C230.739 65.2512 230.473 65.1914 230.178 65.1321C229.302 66.2562 228.366 67.3498 227.372 68.4127C226.376 69.4137 225.322 70.3224 224.207 71.1382C223.679 71.5148 223.034 71.9857 222.271 72.5505C221.509 73.1153 220.658 73.6809 219.718 74.2471C218.837 74.751 217.927 75.2239 216.986 75.6662C216.045 76.0465 215.192 76.2708 214.425 76.3394C212.952 76.4759 211.651 76.1458 210.524 75.3488C209.103 74.5544 207.826 73.5106 206.695 72.2174C205.564 70.8621 205.022 69.3469 205.068 67.6715C205.107 65.0656 205.91 62.143 207.478 58.9039C209.046 55.6026 211.027 52.5149 213.424 49.6407C215.82 46.7047 218.486 44.2937 221.421 42.4077C224.355 40.4597 227.209 39.5359 229.982 39.6364C231.221 39.688 232.344 39.9886 233.352 40.5383C234.358 41.0883 235.337 41.7934 236.288 42.6539C237.24 43.7002 237.837 44.6568 238.079 45.5234C238.322 46.3278 238.328 47.1341 238.098 47.9425C238.575 48.6209 238.73 49.5502 238.562 50.7304C238.453 51.91 237.902 53.2174 236.911 54.6525C236.093 55.7761 235.393 56.7437 234.809 57.5553C234.225 58.3046 233.787 58.8976 233.496 59.3345C233.263 59.7086 233.205 59.9263 233.324 59.9872C233.501 60.0477 233.913 59.8893 234.559 59.5115C235.264 59.1333 236.056 58.5994 236.936 57.9094C237.815 57.1575 238.723 56.3124 239.659 55.3737C240.655 54.4348 241.621 53.465 242.557 52.4644C243.493 51.402 244.37 50.4019 245.188 49.4644L247.117 47.1216C247.879 46.4948 248.557 46.4269 249.15 46.9182C249.744 47.3474 249.837 48.029 249.432 48.9631L247.415 51.3997ZM214.826 70.9386C215.418 71.1817 216.185 71.1752 217.127 70.9191C218.128 70.6625 219.186 70.2193 220.302 69.5893C221.417 68.8975 222.591 68.05 223.822 67.0471C225.053 66.044 226.224 64.9795 227.336 63.8533C226.208 62.8084 225.519 61.4184 225.269 59.6834C225.079 57.948 225.42 56.2391 226.292 54.5567C226.582 53.9337 227.019 53.2786 227.604 52.5914C228.189 51.904 228.832 51.247 229.536 50.6208C230.239 49.9946 230.972 49.43 231.735 48.927C232.498 48.4243 233.232 48.0458 233.938 47.7918C234.401 46.6091 234.278 45.9277 233.568 45.7476C232.683 45.6311 231.36 46.2317 229.6 47.5494C227.899 48.8046 226.142 50.4014 224.328 52.3399C222.514 54.2166 220.789 56.2163 219.154 58.3395C217.577 60.462 216.47 62.2705 215.833 63.7649C215.543 64.3877 215.224 65.0728 214.876 65.8202C214.527 66.5677 214.238 67.2835 214.007 67.9679C213.835 68.6516 213.781 69.2725 213.844 69.8304C213.967 70.3877 214.294 70.7572 214.826 70.9386ZM282.017 57.9922C281.373 58.6801 280.435 59.4324 279.202 60.2494C278.029 61.0657 276.767 61.852 275.416 62.6078C275.306 63.7254 275.079 64.8751 274.734 66.0566C274.448 67.2379 273.986 68.5134 273.348 69.8839C272.361 71.9394 271.075 73.5013 269.491 74.5693C267.906 75.6373 266.289 76.3336 264.64 76.6576C263.05 76.9812 261.546 77.0561 260.129 76.8821C258.713 76.77 257.678 76.5306 257.027 76.164C255.013 75.1264 254.058 73.7386 254.163 72.0008C254.208 70.2012 255.05 68.4571 256.689 66.7682C257.391 66.0178 258.507 65.3259 260.036 64.6925C261.564 64.0592 263.358 63.3306 265.416 62.5066C265.93 60.3308 266.385 58.0627 266.78 55.7019C267.174 53.2791 267.541 51.1668 267.881 49.3648C267.88 49.2408 267.88 49.1478 267.879 49.0857C267.937 48.9612 267.966 48.8367 267.965 48.7128L266.826 50.2114C266.475 50.5245 266.093 50.7138 265.68 50.7795C265.326 50.7822 265.031 50.6918 264.793 50.5077C264.556 50.3235 264.406 50.0457 264.345 49.674C264.283 49.3022 264.368 48.8984 264.601 48.4622L269.15 41.7236C269.315 40.1091 269.568 38.5251 269.91 36.9711C270.252 35.4174 270.979 34.1084 272.092 33.0443C273.204 31.9181 274.112 31.073 274.815 30.5086C275.519 29.9445 276.076 29.5674 276.488 29.3778C276.958 29.1878 277.282 29.1231 277.46 29.1836C277.696 29.1815 277.902 29.2108 278.08 29.2713C278.316 29.3313 278.702 29.6072 279.237 30.099C279.771 30.5286 280.217 31.0832 280.577 31.7628C280.995 32.4416 281.236 33.1839 281.301 33.9897C281.366 34.7337 281.077 35.4495 280.433 36.1374C279.79 36.8253 279.145 37.3892 278.499 37.8289C277.854 38.2066 277.268 38.7698 276.743 39.5187C276.217 40.2056 275.782 41.1708 275.438 42.4145C275.093 43.6584 274.901 45.4899 274.86 47.9097C274.817 49.9573 274.861 51.787 274.991 53.3989C275.121 54.9487 275.25 56.4056 275.379 57.7693C276.788 56.8888 278.342 55.7899 280.043 54.4727C281.039 53.5957 281.976 52.7503 282.855 51.9363C283.733 51.0605 284.64 50.0911 285.575 49.0287C285.751 48.7791 285.926 48.5604 286.101 48.3726C286.336 48.1226 286.51 47.873 286.627 47.6238C287.448 46.9964 288.125 46.9287 288.66 47.4205C289.253 47.8497 289.347 48.5004 288.941 49.3723C287.89 50.8699 286.81 52.3372 285.7 53.7734C284.649 55.1471 283.421 56.5534 282.017 57.9922ZM258.051 71.3164C257.936 71.6274 257.997 71.9061 258.235 72.1522C258.473 72.3984 258.798 72.5198 259.211 72.5163C259.683 72.5121 260.212 72.3525 260.8 72.0376C261.387 71.6602 262.001 71.0347 262.644 70.1607C262.818 69.9111 262.964 69.6617 263.08 69.4125C263.255 69.1008 263.429 68.7891 263.604 68.4776C262.546 68.9829 261.664 69.3316 260.958 69.5235C260.31 69.7152 259.78 69.8748 259.368 70.0023C259.015 70.1295 258.722 70.287 258.487 70.4752C258.312 70.6627 258.166 70.943 258.051 71.3164ZM310.424 57.1926C309.022 59.0037 307.737 60.6277 306.568 62.0644C305.458 63.4386 304.405 64.6883 303.411 65.8133C302.417 66.9385 301.422 67.9705 300.427 68.9096C299.49 69.848 298.465 70.7872 297.351 71.7272C296.414 72.6038 295.271 73.482 293.921 74.362C292.57 75.18 291.247 75.6873 289.951 75.8846C289.303 76.0142 288.477 75.9902 287.472 75.8125C286.469 75.6969 285.671 75.5175 285.079 75.2744C284.37 75.0325 283.541 74.6361 282.593 74.0859C281.644 73.4736 280.725 72.799 279.834 72.062C279.002 71.2627 278.288 70.4312 277.691 69.5677C277.154 68.7037 276.882 67.8376 276.875 66.969C276.914 64.3633 277.629 61.4414 279.02 58.2037C280.469 54.9033 282.304 51.817 284.523 48.9445C286.802 46.0715 289.32 43.6926 292.078 41.808C294.895 39.8611 297.69 38.9378 300.463 39.0383C301.643 39.0904 302.737 39.3912 303.744 39.9411C304.751 40.4909 305.759 41.1957 306.768 42.0558C307.78 43.2259 308.378 44.2753 308.562 45.2044C308.746 46.1333 308.665 47.0336 308.318 47.9051C308.029 48.7139 307.534 49.5556 306.833 50.43C306.131 51.2426 305.431 52.2101 304.731 53.3326C304.322 53.7704 303.735 54.1477 302.97 54.4643C302.205 54.7188 301.47 54.9112 300.763 55.0413C300.055 55.1094 299.495 55.0831 299.081 54.9626C298.726 54.8414 298.783 54.593 299.252 54.2166C299.662 53.8409 300.247 53.1846 301.007 52.2476C301.825 51.2482 302.555 50.2493 303.196 49.2513C303.896 48.2528 304.361 47.3493 304.591 46.5409C304.82 45.7323 304.64 45.2686 304.049 45.1495C303.163 45.033 301.9 45.6951 300.26 47.136C298.678 48.5762 297.04 50.3582 295.345 52.4818C293.71 54.543 292.163 56.6962 290.706 58.942C289.248 61.1876 288.171 63.0889 287.475 64.6457C287.185 65.2687 286.896 65.9535 286.606 66.7003C286.317 67.3852 286.115 68.0384 286.002 68.6597C285.889 69.2811 285.893 69.8083 286.014 70.2416C286.194 70.6122 286.579 70.826 287.169 70.8832C288.231 70.936 289.556 70.5527 291.142 69.7326C292.788 68.9124 294.549 67.8118 296.426 66.4309C298.303 64.9881 300.207 63.2971 302.138 61.3574C304.129 59.4175 306.001 57.3234 307.753 55.075C308.92 53.4522 310.089 51.9224 311.257 50.4856C312.485 48.9863 313.566 47.6743 314.501 46.5497C315.204 45.9235 315.852 45.8558 316.446 46.3471C317.039 46.7763 317.133 47.4579 316.727 48.392C315.91 49.5156 314.976 50.8574 313.927 52.4172C312.936 53.9765 311.768 55.5684 310.424 57.1926ZM323.181 28.4233C323.417 28.4833 323.802 28.7592 324.337 29.251C324.93 29.6802 325.436 30.2344 325.854 30.9132C326.272 31.5299 326.513 32.2413 326.578 33.0473C326.703 33.8527 326.443 34.5995 325.799 35.2871C324.102 37.0386 322.728 38.5703 321.676 39.8821C320.623 41.1315 320.188 42.0969 320.371 42.7779C320.431 42.9633 320.521 43.1796 320.641 43.4269C320.819 43.6114 321.086 43.7642 321.441 43.8854C322.032 44.0664 322.8 44.1529 323.744 44.145C324.687 44.075 325.601 44.0362 326.486 44.0287C327.37 43.9592 328.166 43.9212 328.874 43.9154C329.581 43.8473 329.994 43.8747 330.113 43.9978C330.766 44.5507 331.185 45.3536 331.371 46.4067C331.614 47.3972 331.708 48.1407 331.653 48.6376C331.713 48.8233 331.364 49.4465 330.606 50.5075C329.906 51.5681 328.972 52.879 327.804 54.4397C326.695 55.9381 325.469 57.5923 324.126 59.4029C322.783 61.1513 321.557 62.8368 320.449 64.4591C319.224 66.2685 318.467 67.6397 318.179 68.5727C317.951 69.5054 318.248 69.875 319.073 69.6819C319.309 69.742 319.867 69.396 320.746 68.6439C321.625 67.8302 322.678 66.7666 323.907 65.4534C325.195 64.1397 326.569 62.639 328.031 60.9517C329.493 59.2642 330.954 57.5458 332.416 55.7964C333.936 54.0465 335.368 52.3593 336.713 50.735C338.115 49.048 339.313 47.5801 340.307 46.3308C341.069 45.7039 341.717 45.6364 342.252 46.1282C342.845 46.5574 342.939 47.239 342.533 48.173C341.6 49.5458 340.462 51.1994 339.12 53.1339C337.837 55.0059 336.407 56.9723 334.83 59.0328C333.312 61.0929 331.735 63.1536 330.099 65.2147C328.463 67.2137 326.854 68.9954 325.273 70.5599C323.693 72.1241 322.198 73.3775 320.79 74.3201C319.44 75.2 318.292 75.551 317.347 75.3728C316.756 75.3158 316.018 75.136 315.131 74.8333C314.302 74.4681 313.473 74.041 312.643 73.5518C311.873 73.0618 311.19 72.5405 310.596 71.9871C310.06 71.3713 309.82 70.722 309.873 70.039C309.867 69.1706 310.006 68.1147 310.291 66.8717C310.577 65.6286 311.126 64.1039 311.938 62.298C312.75 60.4921 313.883 58.373 315.34 55.9413C316.796 53.5094 318.75 50.7013 321.203 47.5166C321.437 47.2044 321.466 47.0801 321.289 47.1437C321.171 47.1446 320.906 47.24 320.495 47.4296C320.142 47.5566 319.73 47.6531 319.258 47.7192C318.786 47.7231 318.343 47.5717 317.927 47.2651C317.635 47.5777 317.255 47.9532 316.786 48.3915C316.376 48.8293 316.055 49.1731 315.821 49.4232C314.999 50.0506 314.292 50.1497 313.699 49.7205C313.165 49.2287 313.1 48.5469 313.507 47.675C313.798 47.2381 314.002 46.9261 314.119 46.7391C314.235 46.5521 314.352 46.365 314.468 46.1778C314.585 45.9907 314.731 45.7723 314.906 45.5227C315.14 45.2726 315.49 44.8043 315.957 44.118C315.475 42.8193 315.083 41.675 314.78 40.6849C314.477 39.6329 314.322 38.6726 314.316 37.8042C314.367 36.8732 314.597 35.9718 315.003 35.0996C315.468 34.1651 316.197 33.1665 317.192 32.1033C318.304 30.9772 319.212 30.1629 319.916 29.6607C320.679 29.0959 321.266 28.7188 321.677 28.5292C322.147 28.277 322.471 28.1812 322.648 28.2416C322.885 28.3017 323.062 28.3624 323.181 28.4233ZM363.387 56.7432C362.57 57.8049 361.635 58.9916 360.583 60.3032C359.59 61.5524 358.538 62.833 357.427 64.1453C356.317 65.4576 355.176 66.7389 354.006 67.9895C352.835 69.1783 351.693 70.2426 350.58 71.1826C349.642 71.9971 348.469 72.8755 347.061 73.8179C345.652 74.6984 344.299 75.2372 343.003 75.4344C342.355 75.564 341.529 75.5398 340.525 75.3623C339.521 75.2467 338.723 75.0674 338.131 74.8243C337.422 74.5821 336.593 74.1859 335.645 73.6357C334.696 73.0235 333.777 72.3488 332.886 71.6118C332.054 70.8125 331.34 69.9811 330.743 69.1176C330.206 68.2536 329.934 67.3873 329.927 66.5188C329.966 63.9129 330.681 60.9913 332.072 57.7535C333.522 54.4532 335.356 51.3668 337.575 48.4943C339.854 45.6213 342.372 43.2424 345.13 41.3579C347.947 39.411 350.742 38.4877 353.515 38.5882C354.695 38.6403 355.789 38.9411 356.796 39.4908C357.803 40.0407 358.811 40.7456 359.82 41.6054C360.772 42.652 361.369 43.6086 361.612 44.4749C361.855 45.3415 361.861 46.1789 361.631 46.9873C361.402 47.7957 360.995 48.6057 360.411 49.4172C359.827 50.1665 359.184 50.9786 358.483 51.853C357.081 53.5399 355.588 55.0103 354.005 56.2647C352.421 57.5188 350.837 58.5559 349.25 59.3757C347.723 60.1952 346.282 60.8277 344.929 61.2735C343.576 61.7192 342.457 61.9769 341.573 62.0465C341.34 62.4827 341.137 62.8877 340.963 63.2613C340.788 63.573 340.643 63.8845 340.527 64.1956C340.237 64.8185 339.947 65.4722 339.658 66.1571C339.368 66.842 339.167 67.4952 339.053 68.1166C338.94 68.7377 338.944 69.2651 339.066 69.6982C339.246 70.1311 339.631 70.3759 340.221 70.4329C341.166 70.549 342.402 70.2284 343.93 69.4709C345.517 68.713 347.22 67.6438 349.038 66.2636C350.914 64.8209 352.848 63.1294 354.839 61.1895C356.829 59.1875 358.759 56.9998 360.628 54.6265C361.855 53.0029 363.052 51.4729 364.221 50.0362C365.448 48.5369 366.5 47.2253 367.376 46.101C368.08 45.4748 368.728 45.4073 369.321 45.8984C369.913 46.3278 370.008 47.0094 369.601 47.9432C368.785 49.0668 367.852 50.4086 366.801 51.9684C365.751 53.4663 364.613 55.0578 363.387 56.7432ZM357.101 44.6994C356.511 44.6424 355.746 44.9281 354.807 45.5564C353.927 46.1843 352.96 47.0299 351.907 48.0935C350.853 49.1571 349.742 50.4072 348.573 51.844C347.463 53.2181 346.412 54.623 345.42 56.0583C346.243 55.617 347.27 55.0189 348.503 54.264C349.736 53.447 351.172 52.3183 352.813 50.8774C353.458 50.3137 354.131 49.6875 354.834 48.9991C355.536 48.3108 356.121 47.6855 356.589 47.1232C357.056 46.4988 357.347 45.9691 357.461 45.5338C357.635 45.0981 357.515 44.8199 357.101 44.6994ZM390.432 56.5138C389.614 57.5753 388.68 58.762 387.627 60.0738C386.634 61.3228 385.583 62.6037 384.473 63.9157C383.36 65.228 382.221 66.5093 381.051 67.7602C379.881 68.9487 378.737 70.013 377.624 70.953C376.687 71.7675 375.514 72.6459 374.105 73.5885C372.696 74.469 371.342 75.0078 370.046 75.2048C369.4 75.3344 368.573 75.3105 367.569 75.1327C366.564 75.0173 365.768 74.838 365.176 74.5949C364.466 74.3527 363.637 73.9565 362.689 73.4061C361.741 72.7938 360.821 72.1192 359.931 71.3825C359.099 70.5829 358.385 69.7515 357.788 68.888C357.25 68.024 356.978 67.1579 356.972 66.2895C357.011 63.6835 357.726 60.7617 359.117 57.5239C360.566 54.2238 362.4 51.1372 364.62 48.2647C366.898 45.3917 369.416 43.013 372.174 41.1285C374.992 39.1814 377.786 38.2581 380.56 38.3586C381.739 38.4107 382.834 38.7117 383.84 39.2614C384.847 39.8111 385.855 40.516 386.864 41.376C387.817 42.4226 388.415 43.379 388.656 44.2455C388.899 45.1121 388.906 45.9493 388.676 46.758C388.446 47.5663 388.039 48.3761 387.457 49.1876C386.871 49.9371 386.229 50.749 385.528 51.6234C384.126 53.3103 382.632 54.7809 381.049 56.0351C379.465 57.2892 377.881 58.3263 376.295 59.1463C374.767 59.9656 373.327 60.5984 371.973 61.0441C370.621 61.4898 369.502 61.7473 368.617 61.8169C368.385 62.2533 368.181 62.6581 368.007 63.0319C367.832 63.3434 367.688 63.6549 367.571 63.9662C367.281 64.5889 366.991 65.2429 366.702 65.9277C366.412 66.6126 366.21 67.2656 366.098 67.8869C365.985 68.5083 365.989 69.0357 366.11 69.4688C366.29 69.9015 366.675 70.1465 367.266 70.2035C368.21 70.3196 369.447 69.9988 370.975 69.2413C372.561 68.4834 374.264 67.4145 376.083 66.0343C377.958 64.5915 379.892 62.9 381.883 60.9599C383.873 58.9579 385.802 56.7702 387.674 54.3969C388.899 52.7736 390.096 51.2436 391.266 49.8068C392.494 48.3075 393.544 46.9957 394.42 45.8716C395.124 45.2451 395.772 45.1777 396.365 45.669C396.96 46.0982 397.053 46.7798 396.648 47.7138C395.829 48.8374 394.896 50.179 393.845 51.7391C392.797 53.2367 391.657 54.8284 390.432 56.5138ZM384.145 44.4698C383.555 44.4128 382.792 44.6985 381.852 45.3268C380.971 45.9547 380.005 46.8005 378.952 47.8639C377.897 48.9275 376.786 50.1776 375.618 51.6146C374.508 52.9888 373.457 54.3934 372.464 55.8287C373.287 55.3874 374.315 54.7896 375.547 54.0344C376.779 53.2177 378.217 52.0887 379.856 50.648C380.502 50.0841 381.175 49.4581 381.878 48.7697C382.582 48.0814 383.166 47.4561 383.632 46.8938C384.101 46.2694 384.391 45.7395 384.506 45.3042C384.679 44.8685 384.559 44.5905 384.145 44.4698ZM423.225 44.3244C423.121 46.3104 422.665 48.2375 421.854 50.1055C421.042 51.9114 420.082 53.7188 418.976 55.5272C417.868 57.2736 416.671 59.0207 415.388 60.7687C414.16 62.4541 413.023 64.1388 411.975 65.8226C411.451 66.6956 411.19 67.2872 411.192 67.5973C411.371 67.8439 411.811 67.6541 412.515 67.0278C413.278 66.4009 414.185 65.4936 415.238 64.306C416.348 63.0559 417.576 61.6187 418.921 59.9942C420.265 58.37 421.608 56.7146 422.953 55.028C424.355 53.2791 425.698 51.5927 426.983 49.969C428.269 48.2831 429.408 46.8154 430.401 45.5662C431.164 44.9395 431.841 44.8715 432.434 45.3629C433.029 45.7921 433.122 46.4737 432.717 47.4077C431.783 48.7804 430.644 50.4342 429.304 52.3686C427.961 54.2412 426.501 56.2077 424.924 58.2683C423.407 60.2664 421.829 62.2649 420.192 64.2639C418.556 66.2632 416.947 68.0449 415.366 69.6091C413.844 71.111 412.38 72.3332 410.971 73.2756C409.621 74.1557 408.444 74.5379 407.44 74.4223C406.85 74.3653 406.199 74.1536 405.489 73.7874C404.777 73.4213 404.096 72.9927 403.443 72.5019C402.85 72.0108 402.344 71.4567 401.926 70.84C401.51 70.223 401.326 69.5733 401.381 68.8903C401.43 67.7113 401.716 66.437 402.235 65.0677C402.815 63.6982 403.512 62.2654 404.326 60.7696C405.489 58.6503 406.715 56.7169 407.998 54.9689C409.283 53.1588 410.449 51.288 411.495 49.356C412.077 48.2963 412.512 47.4242 412.802 46.7393C413.149 45.9919 413.264 45.5255 413.145 45.3405C412.966 45.0939 412.466 45.2842 411.645 45.9116C410.882 46.4762 409.915 47.353 408.745 48.5418C407.575 49.7303 406.259 51.1372 404.797 52.7626C403.392 54.3255 401.959 55.9506 400.499 57.6381C399.037 59.3254 397.603 60.9817 396.201 62.6064C394.856 64.2309 393.688 65.6676 392.695 66.9169C391.529 68.974 390.6 70.7499 389.903 72.2446C389.207 73.6774 388.711 74.5502 388.419 74.8629C388.127 75.2376 387.656 75.2104 387.003 74.7817C386.351 74.4151 385.698 73.8314 385.044 73.0304C384.389 72.2295 383.792 71.366 383.254 70.4401C382.774 69.4514 382.531 68.616 382.526 67.9337C382.524 67.5615 382.783 66.7838 383.305 65.6006C383.887 64.417 384.583 63.0152 385.395 61.3954C386.269 59.7751 387.198 58.0301 388.187 56.1607C389.235 54.2906 390.224 52.5142 391.155 50.8313C392.144 49.0859 392.987 47.5587 393.686 46.2501C394.442 44.8788 394.995 43.8815 395.345 43.2582C395.982 41.9499 396.446 40.9845 396.738 40.3617C397.086 39.6762 397.318 39.2091 397.435 38.9599C397.61 38.7103 397.696 38.5854 397.696 38.5854C397.696 38.5854 397.698 38.6165 397.698 38.6784C397.99 38.2418 398.462 38.2378 399.114 38.6666C399.824 39.0946 400.508 39.7092 401.162 40.5102C401.877 41.3106 402.474 42.2051 402.954 43.1936C403.492 44.1816 403.735 45.0172 403.68 45.6999C403.682 45.886 403.565 46.1352 403.332 46.4474C403.098 46.7596 402.835 47.072 402.543 47.3847C402.308 47.6969 402.047 48.0093 401.753 48.3219C401.521 48.6341 401.375 48.8214 401.315 48.884C400.851 49.6945 400.441 50.4112 400.094 51.0347C399.802 51.6574 399.512 52.2492 399.223 52.8101C400.682 50.9365 402.173 49.0938 403.693 47.2818C405.27 45.4694 406.763 43.8747 408.168 42.498C409.632 41.1208 410.982 40.0547 412.214 39.2998C413.506 38.4823 414.623 38.1317 415.569 38.2476C416.16 38.3667 416.899 38.6086 417.786 38.9734C418.673 39.3379 419.502 39.7962 420.274 40.348C421.104 40.8994 421.816 41.5447 422.413 42.284C423.008 42.9614 423.278 43.6416 423.225 44.3244Z"/></svg>