<svg xmlns="http://www.w3.org/2000/svg" width="286" height="67" fill="none" viewBox="0 0 286 67"><path fill="#FD4746" d="M17.1454 27.9369C16.6119 28.0697 16.1453 27.9625 15.7457 27.6154C15.3461 27.2684 15.0265 26.868 14.787 26.4144C14.5474 25.9608 14.4012 25.5207 14.3483 25.094C14.3222 24.6406 14.4158 24.374 14.6292 24.2943C15.2692 24.3216 16.1625 24.2692 17.3094 24.1371C18.4829 23.9783 19.7097 23.7929 20.9899 23.5809C22.2702 23.3423 23.4971 23.1036 24.6707 22.8648C25.8443 22.626 26.7645 22.4403 27.4313 22.3077C27.6447 22.2546 27.8446 22.3615 28.0309 22.6283C28.2173 22.8952 28.1769 23.3085 27.9096 23.8682C27.1613 25.4408 26.3063 27.0799 25.3445 28.7855C24.4094 30.4645 23.5677 32.1037 22.8193 33.7029C22.0976 35.3021 21.5761 36.7949 21.2546 38.1812C20.9598 39.5943 21.0785 40.7944 21.6108 41.7816C21.2903 42.2613 20.8634 42.5142 20.33 42.5403C19.7966 42.593 19.2634 42.4591 18.7305 42.1386C18.2241 41.818 17.7846 41.3376 17.412 40.6972C17.0393 40.0835 16.8401 39.3366 16.8143 38.4566C16.9757 37.0967 17.337 35.8971 17.8981 34.8577C18.4858 33.845 19.1802 32.8724 19.9812 31.9399C20.7822 30.9807 21.6232 30.0083 22.5042 29.0225C23.4119 28.0368 24.2665 26.8777 25.0679 25.5452L24.2668 26.5444C23.2256 27.7433 22.051 28.9554 20.743 30.1807C19.4618 31.3793 18.0873 32.4579 16.6196 33.4164C15.1786 34.4015 13.6844 35.1866 12.1371 35.7717C10.5898 36.3834 9.05621 36.6484 7.5363 36.5668C5.85638 36.4851 4.52347 36.0837 3.53756 35.3626C2.55162 34.6683 1.8726 33.7342 1.5005 32.5605C1.1551 31.3601 1.08989 29.9734 1.30487 28.4003C1.54652 26.8272 2.04163 25.1344 2.79021 23.3218C3.56544 21.5093 4.56742 19.6304 5.79613 17.685C7.05153 15.713 8.50692 13.7545 10.1623 11.8096C11.5774 10.1311 13.019 8.55923 14.4873 7.09411C15.9555 5.60232 17.4235 4.33719 18.8912 3.29873C20.359 2.23361 21.8132 1.4218 23.2538 0.863313C24.7211 0.304853 26.1746 0.106378 27.6144 0.26789C28.1744 0.321812 28.7208 0.562386 29.2537 0.989612C29.8132 1.41687 30.2793 1.97736 30.6519 2.67108C31.0512 3.36483 31.317 4.19178 31.4493 5.15192C31.5817 6.08539 31.5139 7.11199 31.2461 8.23171C31.005 9.24479 30.5505 10.3243 29.8827 11.4703C29.2148 12.5896 28.467 13.6821 27.6392 14.7479C26.8114 15.8137 25.9704 16.7862 25.1162 17.6653C24.2619 18.5177 23.5146 19.1836 22.8741 19.6629C22.5805 19.8759 22.207 20.0089 21.7536 20.0617C21.3269 20.088 20.8603 20.0741 20.3537 20.0203C19.8737 19.9664 19.3938 19.8726 18.914 19.7388C18.4341 19.5783 18.021 19.4045 17.6745 19.2175C17.3547 19.0305 17.1282 18.8436 16.9951 18.6567C16.862 18.4433 16.8889 18.2566 17.0757 18.0968C17.5559 17.8573 18.1164 17.4579 18.757 16.8986C19.3975 16.3393 20.0649 15.7 20.759 14.9807C21.4797 14.2615 22.2005 13.5022 22.9214 12.703C23.6422 11.9037 24.3097 11.1444 24.9238 10.4251C25.5378 9.70572 26.0585 9.06626 26.4858 8.50671C26.9397 7.94719 27.2468 7.54751 27.407 7.30768C27.9947 6.40163 28.2087 5.69518 28.0493 5.18835C27.8898 4.68152 27.3565 4.60096 26.4495 4.94667C24.8755 5.55835 23.1944 6.66325 21.406 8.26138C19.6177 9.8595 17.7223 11.7908 15.7199 14.0554C15.0258 14.8013 14.1847 15.8271 13.1967 17.1328C12.2353 18.4384 11.2605 19.8507 10.2723 21.3697C9.284 22.8887 8.37571 24.4344 7.54739 26.0068C6.74574 27.5793 6.1709 29.0054 5.82289 30.285C5.47491 31.538 5.43383 32.5646 5.69966 33.3649C5.99215 34.1652 6.75175 34.5527 7.97844 34.5273C9.04513 34.5017 10.1787 34.2363 11.3793 33.7309C12.6064 33.2521 13.8204 32.6401 15.0212 31.8947C16.2487 31.1226 17.4496 30.2706 18.6239 29.3385C19.8249 28.4064 20.9325 27.4609 21.9469 26.502C21.0665 26.821 20.1862 27.1134 19.306 27.3792C18.4257 27.6449 17.7055 27.8308 17.1454 27.9369ZM25.3083 25.1455C25.2549 25.1988 25.2015 25.2254 25.1482 25.2253L25.2282 25.2654L25.3083 25.1455ZM46.2152 22.4874L45.214 23.6064C44.5999 24.2991 43.9592 24.9784 43.2918 25.6444C42.6245 26.3103 41.8772 26.8962 41.05 27.402C40.8365 27.5351 40.5296 27.7348 40.1294 28.001C39.7291 28.2406 39.3957 28.3603 39.129 28.36C38.9956 28.3865 38.8623 28.3997 38.729 28.3996C38.6223 28.3728 38.5023 28.346 38.369 28.3192C37.9685 28.7988 37.5414 29.265 37.0876 29.7179C36.6338 30.144 36.1534 30.5302 35.6463 30.8763C35.4062 31.0361 35.1126 31.2358 34.7657 31.4754C34.4188 31.7151 34.0319 31.9546 33.605 32.1942C33.2047 32.4071 32.7912 32.6067 32.3643 32.7929C31.9375 32.9524 31.5507 33.0454 31.204 33.0717C30.5373 33.1243 29.9508 32.977 29.4445 32.6298C28.8049 32.2825 28.232 31.8286 27.7259 31.268C27.2199 30.6808 26.9806 30.0272 27.008 29.3073C27.0358 28.1873 27.4105 26.9344 28.1319 25.5484C28.8534 24.1359 29.7615 22.8168 30.8561 21.5913C31.9507 20.3391 33.1652 19.3137 34.4993 18.5151C35.8335 17.6899 37.1273 17.3046 38.3805 17.3592C38.9405 17.3865 39.447 17.5203 39.9001 17.7608C40.3532 18.0013 40.7929 18.3084 41.2192 18.6822C41.6453 19.136 41.9116 19.5496 42.0179 19.923C42.1242 20.2698 42.1238 20.6165 42.0168 20.963C42.2298 21.2566 42.296 21.6567 42.2155 22.1632C42.1616 22.6698 41.9077 23.2296 41.4537 23.8424C41.0799 24.322 40.7595 24.735 40.4924 25.0814C40.2254 25.4011 40.0252 25.6543 39.8916 25.8408C39.7848 26.0007 39.758 26.094 39.8113 26.1207C39.8913 26.1475 40.0781 26.081 40.3716 25.9213C40.6917 25.7616 41.052 25.5353 41.4523 25.2424C41.8526 24.9229 42.2663 24.5633 42.6934 24.1637C43.1472 23.7642 43.5876 23.3513 44.0147 22.9251C44.4418 22.4722 44.8423 22.046 45.216 21.6464L46.0971 20.6473C46.444 20.381 46.7507 20.3547 47.0172 20.5683C47.2836 20.7552 47.3233 21.0486 47.1363 21.4484L46.2152 22.4874ZM31.4065 30.7519C31.673 30.8588 32.0197 30.8592 32.4465 30.753C32.8999 30.6468 33.3801 30.4606 33.8871 30.1945C34.394 29.9017 34.9277 29.5423 35.4882 29.1162C36.0486 28.6901 36.5825 28.2373 37.0896 27.7579C36.5834 27.304 36.2774 26.7037 36.1715 25.9569C36.0923 25.2101 36.2531 24.477 36.6538 23.7574C36.7874 23.4909 36.9877 23.2111 37.2547 22.918C37.5217 22.625 37.8153 22.3453 38.1356 22.0789C38.4559 21.8126 38.7895 21.573 39.1363 21.36C39.4832 21.147 39.8167 20.9874 40.1368 20.881C40.3507 20.3746 40.2977 20.0812 39.9778 20.0009C39.5778 19.9471 38.9776 20.1998 38.177 20.759C37.4031 21.2915 36.6024 21.9707 35.7748 22.7965C34.9473 23.5956 34.1598 24.4481 33.4121 25.354C32.6912 26.2599 32.1837 27.0327 31.8897 27.6724C31.7561 27.9389 31.6091 28.2321 31.4488 28.5519C31.2885 28.8718 31.1548 29.1783 31.0478 29.4715C30.9675 29.7648 30.9406 30.0314 30.967 30.2714C31.0201 30.5115 31.1666 30.6716 31.4065 30.7519ZM61.8311 25.4638C61.5375 25.7569 61.1105 26.0764 60.5501 26.4225C60.0164 26.7686 59.4427 27.1013 58.829 27.4207C58.7752 27.9006 58.668 28.3938 58.5075 28.9003C58.3736 29.4069 58.1597 29.9533 57.8658 30.5397C57.4115 31.4192 56.8241 32.0852 56.1037 32.5378C55.3832 32.9904 54.6496 33.283 53.9028 33.4155C53.1826 33.5481 52.5026 33.574 51.8627 33.4934C51.2227 33.4394 50.7562 33.3322 50.463 33.1719C49.5568 32.7176 49.1308 32.1172 49.1849 31.3706C49.2124 30.5973 49.5998 29.851 50.3472 29.1318C50.6676 28.8121 51.1746 28.5193 51.8682 28.2534C52.5618 27.9874 53.3754 27.6816 54.3091 27.3359C54.5501 26.4029 54.7645 25.4297 54.9522 24.4166C55.14 23.3768 55.3142 22.4703 55.4751 21.6972C55.4751 21.6438 55.4752 21.6038 55.4752 21.5772C55.5019 21.5239 55.5153 21.4705 55.5154 21.4172L54.9947 22.0567C54.8345 22.1898 54.6611 22.2696 54.4744 22.2961C54.3144 22.2959 54.1811 22.2558 54.0746 22.1757C53.968 22.0956 53.9014 21.9755 53.8749 21.8155C53.8484 21.6554 53.8886 21.4822 53.9955 21.2956L56.0785 18.4178C56.1592 17.7245 56.2799 17.0447 56.4406 16.3782C56.6013 15.7117 56.9353 15.152 57.4424 14.6992C57.9496 14.2198 58.3633 13.8602 58.6835 13.6205C59.0038 13.3809 59.2573 13.2211 59.444 13.1413C59.6575 13.0615 59.8042 13.035 59.8841 13.0618C59.9908 13.0619 60.0841 13.0753 60.1641 13.1021C60.2707 13.1289 60.4439 13.249 60.6837 13.4626C60.9235 13.6495 61.1233 13.8898 61.283 14.1833C61.4693 14.4768 61.5756 14.7969 61.6019 15.1436C61.6283 15.4636 61.4946 15.7701 61.201 16.0632C60.9073 16.3562 60.6137 16.5959 60.3202 16.7822C60.0267 16.9419 59.7598 17.1817 59.5195 17.5014C59.2792 17.7945 59.0787 18.2076 58.9182 18.7408C58.7576 19.2739 58.6634 20.0605 58.6357 21.1005C58.6081 21.9804 58.6206 22.7671 58.6732 23.4605C58.7258 24.1272 58.7785 24.754 58.8312 25.3407C59.4716 24.968 60.1788 24.5021 60.9527 23.9429C61.4064 23.5701 61.8335 23.2105 62.2338 22.8643C62.6342 22.4913 63.048 22.0784 63.4751 21.6256C63.5552 21.519 63.6353 21.4257 63.7154 21.3458C63.8222 21.2393 63.9023 21.1327 63.9558 21.0261C64.3294 20.7598 64.6361 20.7334 64.8758 20.947C65.1423 21.134 65.182 21.414 64.995 21.7872C64.5143 22.4266 64.0203 23.0528 63.513 23.6656C63.0324 24.2518 62.4717 24.8512 61.8311 25.4638ZM50.9452 31.0924C50.8917 31.2257 50.9183 31.3457 51.0248 31.4525C51.1314 31.5593 51.278 31.6128 51.4646 31.6129C51.678 31.6132 51.918 31.5468 52.1849 31.4137C52.4517 31.254 52.732 30.9876 53.0257 30.6146C53.1058 30.508 53.1726 30.4014 53.226 30.2948C53.3062 30.1615 53.3863 30.0283 53.4664 29.8951C52.9862 30.1079 52.5861 30.2541 52.266 30.3338C51.9726 30.4135 51.7325 30.4799 51.5458 30.533C51.3857 30.5862 51.2523 30.6527 51.1456 30.7326C51.0655 30.8125 50.9987 30.9325 50.9452 31.0924ZM74.676 25.2373C74.0352 26.01 73.4478 26.7027 72.9139 27.3155C72.4066 27.9016 71.926 28.4344 71.4722 28.914C71.0183 29.3935 70.5645 29.833 70.1108 30.2325C69.6837 30.6321 69.2166 31.0316 68.7095 31.4311C68.2825 31.8039 67.7621 32.1767 67.1484 32.5494C66.5347 32.8954 65.9344 33.1081 65.3477 33.1875C65.0543 33.2406 64.681 33.2268 64.2277 33.1464C63.7744 33.0925 63.4145 33.0122 63.148 32.9052C62.8281 32.7982 62.4549 32.6245 62.0285 32.384C61.6021 32.1169 61.1891 31.8232 60.7894 31.5027C60.4165 31.1557 60.0969 30.7953 59.8306 30.4217C59.591 30.0481 59.4714 29.6747 59.4718 29.3014C59.4996 28.1814 59.8343 26.9284 60.4757 25.5424C61.1439 24.1298 61.9852 22.8107 62.9999 21.5851C64.0412 20.3595 65.1889 19.3474 66.4431 18.5487C67.7239 17.7234 68.991 17.338 70.2443 17.3927C70.7776 17.4199 71.2708 17.5537 71.7238 17.7942C72.1769 18.0347 72.6299 18.3418 73.0829 18.7156C73.5357 19.2228 73.8019 19.6764 73.8815 20.0765C73.961 20.4766 73.9206 20.8632 73.7602 21.2364C73.6265 21.5829 73.3995 21.9426 73.0791 22.3156C72.7587 22.662 72.4383 23.075 72.1178 23.5546C71.9309 23.7411 71.6641 23.9008 71.3173 24.0338C70.9705 24.1401 70.6371 24.2197 70.317 24.2727C69.997 24.2991 69.7437 24.2855 69.5571 24.2319C69.3971 24.1784 69.4239 24.0718 69.6374 23.912C69.8243 23.7522 70.0912 23.4725 70.4383 23.0729C70.8121 22.6466 71.1459 22.2203 71.4396 21.7939C71.7601 21.3676 71.9738 20.9811 72.0809 20.6346C72.1879 20.288 72.1081 20.088 71.8415 20.0343C71.4416 19.9806 70.8679 20.26 70.1206 20.8725C69.4 21.4851 68.6525 22.2443 67.8782 23.1502C67.1306 24.0294 66.423 24.9487 65.7553 25.908C65.0877 26.8673 64.5935 27.6801 64.2728 28.3464C64.1392 28.6129 64.0055 28.9061 63.8718 29.226C63.7382 29.5192 63.6446 29.7991 63.591 30.0657C63.5373 30.3323 63.5371 30.559 63.5902 30.7457C63.6701 30.9058 63.8433 30.9993 64.11 31.0262C64.5899 31.0534 65.1901 30.894 65.9105 30.5481C66.6575 30.2022 67.458 29.7364 68.3119 29.1506C69.1659 28.5382 70.0333 27.8191 70.9142 26.9934C71.8217 26.1677 72.676 25.2752 73.477 24.3161C74.0111 23.6233 74.5451 22.9705 75.0791 22.3577C75.6397 21.7183 76.1337 21.1589 76.5608 20.6793C76.8811 20.413 77.1745 20.3866 77.4409 20.6002C77.7074 20.7872 77.7471 21.0805 77.56 21.4803C77.1861 21.96 76.7589 22.5328 76.2782 23.199C75.8241 23.8652 75.2901 24.5446 74.676 25.2373ZM80.5555 12.9235C80.6622 12.9503 80.8354 13.0705 81.0752 13.284C81.3416 13.471 81.568 13.7112 81.7544 14.0047C81.9408 14.2716 82.0471 14.5784 82.0734 14.9251C82.1264 15.2718 82.0061 15.5917 81.7124 15.8847C80.9383 16.6306 80.311 17.2832 79.8304 17.8427C79.3498 18.3756 79.1494 18.7887 79.2291 19.0821C79.2556 19.1621 79.2955 19.2555 79.3488 19.3622C79.4287 19.4423 79.5486 19.5091 79.7086 19.5626C79.9751 19.6429 80.3218 19.6832 80.7484 19.6837C81.1751 19.6575 81.5885 19.6446 81.9885 19.645C82.3885 19.6188 82.7485 19.6058 83.0685 19.6061C83.3885 19.5798 83.5752 19.5933 83.6285 19.6467C83.9216 19.887 84.1079 20.2339 84.1874 20.6873C84.2936 21.1141 84.3333 21.4341 84.3064 21.6474C84.333 21.7275 84.1727 21.994 83.8255 22.4469C83.5051 22.8999 83.0778 23.4595 82.5438 24.1256C82.0364 24.7651 81.4757 25.4711 80.8615 26.2438C80.2474 26.9898 79.6867 27.7093 79.1793 28.4021C78.6185 29.1748 78.2712 29.7611 78.1374 30.161C78.0303 30.5608 78.1635 30.721 78.5369 30.6414C78.6436 30.6682 78.897 30.5218 79.2974 30.2022C79.6977 29.8559 80.1782 29.4031 80.7388 28.8437C81.3261 28.2843 81.9534 27.645 82.6208 26.9257C83.2882 26.2064 83.9557 25.4737 84.6231 24.7278C85.3173 23.9818 85.9713 23.2625 86.5854 22.5698C87.2262 21.8505 87.7735 21.2244 88.2274 20.6916C88.5743 20.4252 88.8677 20.3989 89.1075 20.6125C89.3739 20.7994 89.4136 21.0928 89.2265 21.4926C88.7993 22.0788 88.2785 22.7849 87.6643 23.611C87.0768 24.4103 86.4226 25.2497 85.7017 26.1289C85.0074 27.0082 84.2865 27.8874 83.5389 28.7666C82.7913 29.6192 82.0572 30.3784 81.3365 31.0443C80.6158 31.7102 79.9352 32.2428 79.2948 32.6422C78.6811 33.0149 78.1609 33.161 77.7344 33.0805C77.4677 33.0536 77.1345 32.9732 76.7346 32.8395C76.3614 32.6791 75.9883 32.492 75.6152 32.2783C75.2688 32.0646 74.9623 31.8376 74.6959 31.5973C74.4562 31.3304 74.3498 31.0503 74.3768 30.757C74.3772 30.3837 74.4443 29.9304 74.5782 29.3972C74.7121 28.864 74.9661 28.211 75.3403 27.438C75.7144 26.6651 76.2354 25.759 76.9031 24.7197C77.5709 23.6804 78.4655 22.4813 79.5869 21.1225C79.6937 20.9893 79.7071 20.9359 79.6271 20.9625C79.5738 20.9625 79.4537 21.0023 79.267 21.0821C79.1069 21.1353 78.9202 21.1751 78.7068 21.2016C78.4935 21.2013 78.2936 21.1345 78.107 21.0009C77.9736 21.1341 77.8001 21.2939 77.5865 21.4804C77.3997 21.6668 77.2529 21.8134 77.1461 21.9199C76.7725 22.1862 76.4524 22.2259 76.186 22.0389C75.9462 21.8253 75.9198 21.532 76.1069 21.1588C76.2404 20.9723 76.3339 20.8391 76.3873 20.7591C76.4407 20.6792 76.4941 20.5992 76.5476 20.5193C76.601 20.4393 76.6677 20.3461 76.7478 20.2395C76.8546 20.1329 77.0148 19.9331 77.2285 19.64C77.0157 19.0798 76.8429 18.5863 76.71 18.1595C76.5772 17.706 76.5109 17.2926 76.5113 16.9192C76.5384 16.5193 76.6455 16.1327 76.8326 15.7596C77.0463 15.3598 77.3801 14.9335 77.8339 14.4806C78.3411 14.0012 78.7548 13.6549 79.075 13.4419C79.4219 13.2023 79.6887 13.0426 79.8755 12.9628C80.0889 12.8563 80.2356 12.8165 80.3156 12.8432C80.4223 12.87 80.5022 12.8968 80.5555 12.9235ZM98.6204 25.2625C98.2466 25.7154 97.8194 26.2216 97.3388 26.7811C96.8849 27.314 96.4043 27.8601 95.8971 28.4196C95.3898 28.9791 94.8692 29.5252 94.3354 30.058C93.8015 30.5641 93.281 31.0169 92.7739 31.4163C92.3469 31.7625 91.8132 32.1353 91.1728 32.5346C90.5324 32.9073 89.9188 33.1333 89.332 33.2127C89.0387 33.2657 88.6653 33.252 88.2121 33.1715C87.7588 33.1177 87.3989 33.0374 87.1323 32.9304C86.8124 32.8234 86.4393 32.6497 86.0129 32.4092C85.5865 32.1421 85.1735 31.8483 84.7738 31.5279C84.4008 31.1809 84.0812 30.8205 83.8149 30.4469C83.5753 30.0733 83.4557 29.6999 83.4561 29.3265C83.484 28.2066 83.8186 26.9536 84.4601 25.5676C85.1282 24.155 85.9696 22.8358 86.9842 21.6102C88.0255 20.3847 89.1732 19.3725 90.4274 18.5739C91.7083 17.7485 92.9754 17.3632 94.2286 17.4179C94.7619 17.4451 95.2551 17.5789 95.7082 17.8194C96.1613 18.0599 96.6143 18.367 97.0672 18.7408C97.4934 19.1946 97.7597 19.6082 97.8659 19.9817C97.9722 20.3551 97.9718 20.7151 97.8648 21.0617C97.7578 21.4082 97.5707 21.7547 97.3037 22.1011C97.0367 22.4208 96.743 22.7672 96.4226 23.1402C95.7819 23.8595 95.1012 24.4854 94.3806 25.018C93.6601 25.5506 92.9396 25.9898 92.2193 26.3357C91.5256 26.6817 90.872 26.9477 90.2584 27.1337C89.6449 27.3197 89.1381 27.4258 88.7381 27.4521C88.6312 27.6386 88.5377 27.8119 88.4575 27.9718C88.3774 28.105 88.3106 28.2383 88.2571 28.3716C88.1235 28.6381 87.9899 28.918 87.8562 29.2112C87.7226 29.5044 87.629 29.7843 87.5754 30.0509C87.5217 30.3175 87.5215 30.5441 87.5746 30.7309C87.6544 30.9176 87.8277 31.0245 88.0943 31.0514C88.5209 31.1052 89.0811 30.9725 89.7747 30.6532C90.4951 30.3339 91.2689 29.8814 92.0962 29.2956C92.9501 28.6832 93.8309 27.9641 94.7384 27.1384C95.646 26.286 96.527 25.3536 97.3814 24.3412C97.9421 23.6484 98.4894 22.9957 99.0234 22.3829C99.5841 21.7435 100.065 21.184 100.465 20.7044C100.785 20.4381 101.079 20.4117 101.345 20.6253C101.612 20.8123 101.651 21.1056 101.464 21.5054C101.091 21.9851 100.663 22.5579 100.183 23.2241C99.7019 23.8636 99.1811 24.5431 98.6204 25.2625ZM95.8259 20.0595C95.5592 20.0326 95.2124 20.1522 94.7855 20.4184C94.3852 20.6847 93.9448 21.0442 93.4643 21.497C92.9839 21.9499 92.4766 22.4827 91.9427 23.0955C91.4354 23.6816 90.9548 24.2811 90.5008 24.8939C90.8743 24.7077 91.3412 24.4548 91.9016 24.1354C92.4619 23.7893 93.1158 23.31 93.8631 22.6975C94.1567 22.4578 94.4636 22.1914 94.7839 21.8984C95.1042 21.6054 95.3712 21.3391 95.5848 21.0993C95.7984 20.8328 95.9319 20.6063 95.9855 20.4197C96.0657 20.2331 96.0125 20.1131 95.8259 20.0595ZM110.847 25.2753C110.473 25.7282 110.046 26.2345 109.565 26.794C109.111 27.3268 108.631 27.873 108.124 28.4324C107.616 28.9919 107.096 29.538 106.562 30.0708C106.028 30.5769 105.508 31.0297 105 31.4292C104.573 31.7754 104.04 32.1482 103.399 32.5475C102.759 32.9201 102.145 33.1462 101.559 33.2256C101.265 33.2786 100.892 33.2649 100.439 33.1844C99.9854 33.1306 99.6254 33.0502 99.3589 32.9432C99.039 32.8362 98.6659 32.6625 98.2394 32.4221C97.813 32.155 97.4 31.8612 97.0004 31.5408C96.6274 31.1937 96.3078 30.8334 96.0415 30.4598C95.8019 30.0862 95.6823 29.7127 95.6827 29.3394C95.7105 28.2194 96.0452 26.9664 96.6866 25.5804C97.3548 24.1678 98.1962 22.8487 99.2108 21.6231C100.252 20.3975 101.4 19.3854 102.654 18.5867C103.935 17.7614 105.202 17.376 106.455 17.4307C106.988 17.4579 107.482 17.5918 107.935 17.8322C108.388 18.0727 108.841 18.3799 109.294 18.7537C109.72 19.2075 109.986 19.6211 110.092 19.9945C110.199 20.368 110.198 20.728 110.091 21.0745C109.984 21.4211 109.797 21.7675 109.53 22.1139C109.263 22.4336 108.97 22.78 108.649 23.153C108.008 23.8723 107.328 24.4983 106.607 25.0309C105.887 25.5634 105.166 26.0027 104.446 26.3486C103.752 26.6945 103.099 26.9605 102.485 27.1465C101.871 27.3325 101.365 27.4387 100.965 27.4649C100.858 27.6515 100.764 27.8247 100.684 27.9846C100.604 28.1179 100.537 28.2511 100.484 28.3844C100.35 28.6509 100.216 28.9308 100.083 29.224C99.9492 29.5172 99.8555 29.7971 99.8019 30.0637C99.7483 30.3303 99.7481 30.557 99.8012 30.7437C99.881 30.9305 100.054 31.0373 100.321 31.0643C100.747 31.118 101.308 30.9853 102.001 30.666C102.722 30.3468 103.495 29.8943 104.323 29.3085C105.177 28.696 106.057 27.9769 106.965 27.1512C107.873 26.2988 108.754 25.3664 109.608 24.354C110.169 23.6613 110.716 23.0085 111.25 22.3957C111.811 21.7563 112.291 21.1968 112.692 20.7172C113.012 20.4509 113.305 20.4246 113.572 20.6382C113.838 20.8251 113.878 21.1185 113.691 21.5183C113.317 21.9979 112.89 22.5708 112.409 23.2369C111.928 23.8764 111.408 24.5559 110.847 25.2753ZM108.052 20.0724C107.786 20.0454 107.439 20.1651 107.012 20.4313C106.612 20.6975 106.171 21.0571 105.691 21.5099C105.21 21.9627 104.703 22.4955 104.169 23.1083C103.662 23.6944 103.181 24.2939 102.727 24.9068C103.101 24.7205 103.568 24.4677 104.128 24.1482C104.688 23.8022 105.342 23.3229 106.09 22.7103C106.383 22.4706 106.69 22.2043 107.01 21.9113C107.331 21.6183 107.598 21.3519 107.811 21.1121C108.025 20.8457 108.159 20.6191 108.212 20.4325C108.292 20.246 108.239 20.1259 108.052 20.0724ZM125.719 20.1709C125.665 21.0242 125.45 21.8506 125.076 22.6502C124.702 23.4232 124.261 24.1961 123.754 24.9689C123.246 25.715 122.699 26.4611 122.111 27.2071C121.551 27.9265 121.03 28.646 120.549 29.3655C120.309 29.7386 120.189 29.9918 120.188 30.1251C120.268 30.2319 120.468 30.1521 120.789 29.8857C121.136 29.6194 121.549 29.2332 122.03 28.727C122.537 28.1942 123.098 27.5815 123.712 26.8888C124.326 26.1961 124.94 25.4901 125.554 24.7707C126.195 24.0248 126.809 23.3054 127.396 22.6127C127.984 21.8933 128.504 21.2672 128.958 20.7343C129.305 20.468 129.612 20.4417 129.878 20.6553C130.145 20.8422 130.185 21.1356 129.997 21.5354C129.57 22.1216 129.049 22.8278 128.435 23.6538C127.821 24.4531 127.153 25.2924 126.433 26.1717C125.738 27.0243 125.017 27.8769 124.27 28.7294C123.522 29.582 122.788 30.3412 122.067 31.0071C121.373 31.6464 120.706 32.1657 120.066 32.565C119.452 32.9377 118.919 33.0971 118.465 33.0433C118.199 33.0164 117.905 32.9227 117.586 32.7624C117.266 32.602 116.959 32.4151 116.666 32.2014C116.4 31.9878 116.173 31.7476 115.987 31.4807C115.801 31.2138 115.721 30.9338 115.748 30.6405C115.775 30.1338 115.909 29.5873 116.15 29.0009C116.417 28.4145 116.738 27.8015 117.112 27.1619C117.646 26.2558 118.207 25.4297 118.794 24.6836C119.382 23.9109 119.916 23.1115 120.397 22.2853C120.664 21.8323 120.864 21.4592 120.998 21.166C121.158 20.8461 121.212 20.6462 121.158 20.5661C121.079 20.4594 120.852 20.5391 120.478 20.8054C120.131 21.0451 119.691 21.4179 119.157 21.924C118.623 22.4301 118.023 23.0295 117.355 23.7221C116.714 24.3881 116.06 25.0808 115.393 25.8001C114.726 26.5194 114.071 27.2254 113.431 27.918C112.817 28.6107 112.283 29.2235 111.829 29.7563C111.295 30.6358 110.867 31.3953 110.546 32.035C110.226 32.648 109.999 33.0211 109.865 33.1543C109.732 33.3141 109.518 33.3006 109.225 33.1136C108.932 32.9533 108.639 32.6997 108.346 32.3527C108.053 32.0057 107.787 31.6321 107.547 31.2318C107.334 30.805 107.228 30.4448 107.228 30.1515C107.229 29.9915 107.349 29.6583 107.589 29.1519C107.857 28.6455 108.177 28.0458 108.551 27.3529C108.952 26.66 109.38 25.9138 109.834 25.1142C110.315 24.3147 110.769 23.5552 111.196 22.8357C111.65 22.0895 112.038 21.4366 112.358 20.8769C112.705 20.2906 112.959 19.8642 113.119 19.5977C113.413 19.038 113.627 18.6249 113.761 18.3584C113.921 18.0652 114.028 17.8653 114.081 17.7587C114.162 17.6521 114.202 17.5988 114.202 17.5988C114.202 17.5988 114.202 17.6122 114.202 17.6388C114.335 17.4523 114.548 17.4525 114.842 17.6395C115.161 17.8265 115.468 18.0935 115.761 18.4405C116.08 18.7875 116.347 19.1744 116.559 19.6013C116.799 20.0282 116.905 20.3883 116.878 20.6816C116.878 20.7616 116.825 20.8682 116.718 21.0015C116.611 21.1347 116.491 21.2679 116.358 21.4011C116.251 21.5343 116.131 21.6675 115.997 21.8007C115.89 21.9339 115.824 22.0139 115.797 22.0405C115.583 22.3869 115.396 22.6934 115.236 22.9599C115.102 23.2264 114.969 23.4796 114.835 23.7195C115.503 22.9202 116.183 22.1342 116.878 21.3616C117.598 20.5891 118.279 19.9098 118.92 19.3238C119.587 18.7378 120.201 18.2851 120.761 17.9657C121.348 17.6197 121.855 17.4735 122.282 17.5273C122.548 17.5809 122.881 17.6879 123.281 17.8484C123.681 18.0088 124.054 18.2092 124.401 18.4495C124.774 18.6899 125.093 18.9703 125.36 19.2905C125.626 19.5842 125.746 19.8776 125.719 20.1709Z"/><path fill="#fff" d="M14.28 51.84C14.28 49.0667 14.8534 46.6 16 44.44C17.1734 42.2533 18.8267 40.56 20.96 39.36C23.0934 38.1333 25.5467 37.52 28.32 37.52C31.84 37.52 34.8 38.4667 37.2 40.36C39.6 42.2267 41.1467 44.7733 41.84 48H33.4C32.8934 46.9333 32.1867 46.12 31.28 45.56C30.4 45 29.3734 44.72 28.2 44.72C26.3867 44.72 24.9334 45.3733 23.84 46.68C22.7734 47.96 22.24 49.68 22.24 51.84C22.24 54.0267 22.7734 55.7733 23.84 57.08C24.9334 58.36 26.3867 59 28.2 59C29.3734 59 30.4 58.72 31.28 58.16C32.1867 57.6 32.8934 56.7867 33.4 55.72H41.84C41.1467 58.9467 39.6 61.5067 37.2 63.4C34.8 65.2667 31.84 66.2 28.32 66.2C25.5467 66.2 23.0934 65.6 20.96 64.4C18.8267 63.1733 17.1734 61.48 16 59.32C14.8534 57.1333 14.28 54.64 14.28 51.84ZM49.5125 41.48C48.1259 41.48 47.0059 41.1067 46.1525 40.36C45.3259 39.5867 44.9125 38.6267 44.9125 37.48C44.9125 36.3067 45.3259 35.3333 46.1525 34.56C47.0059 33.7867 48.1259 33.4 49.5125 33.4C50.8725 33.4 51.9659 33.7867 52.7925 34.56C53.6459 35.3333 54.0725 36.3067 54.0725 37.48C54.0725 38.6267 53.6459 39.5867 52.7925 40.36C51.9659 41.1067 50.8725 41.48 49.5125 41.48ZM53.3925 43.56V66H45.5525V43.56H53.3925ZM72.5372 43.36C75.1239 43.36 77.1772 44.2267 78.6972 45.96C80.2172 47.6667 80.9772 49.9867 80.9772 52.92V66H73.1372V53.96C73.1372 52.68 72.8039 51.68 72.1372 50.96C71.4706 50.2133 70.5772 49.84 69.4572 49.84C68.2839 49.84 67.3639 50.2133 66.6972 50.96C66.0306 51.68 65.6972 52.68 65.6972 53.96V66H57.8572V43.56H65.6972V46.76C66.3906 45.7467 67.3239 44.9333 68.4972 44.32C69.6706 43.68 71.0172 43.36 72.5372 43.36ZM106.719 54.52C106.719 55.1333 106.679 55.7467 106.599 56.36H91.7591C91.8391 57.5867 92.1724 58.5067 92.7591 59.12C93.3724 59.7067 94.1458 60 95.0791 60C96.3858 60 97.3191 59.4133 97.8791 58.24H106.239C105.892 59.7867 105.212 61.1733 104.199 62.4C103.212 63.6 101.959 64.5467 100.439 65.24C98.9191 65.9333 97.2391 66.28 95.3991 66.28C93.1858 66.28 91.2124 65.8133 89.4791 64.88C87.7724 63.9467 86.4258 62.6133 85.4391 60.88C84.4791 59.1467 83.9991 57.1067 83.9991 54.76C83.9991 52.4133 84.4791 50.3867 85.4391 48.68C86.3991 46.9467 87.7324 45.6133 89.4391 44.68C91.1724 43.7467 93.1591 43.28 95.3991 43.28C97.6124 43.28 99.5724 43.7333 101.279 44.64C102.986 45.5467 104.319 46.8533 105.279 48.56C106.239 50.24 106.719 52.2267 106.719 54.52ZM98.7191 52.56C98.7191 51.6 98.3991 50.8533 97.7591 50.32C97.1191 49.76 96.3191 49.48 95.3591 49.48C94.3991 49.48 93.6124 49.7467 92.9991 50.28C92.3858 50.7867 91.9858 51.5467 91.7991 52.56H98.7191ZM142.848 37.8V66H135.008V50.44L129.688 66H123.128L117.768 50.32V66H109.928V37.8H119.408L126.488 56.12L133.408 37.8H142.848ZM146.03 54.76C146.03 52.44 146.444 50.4133 147.27 48.68C148.124 46.9467 149.27 45.6133 150.71 44.68C152.177 43.7467 153.804 43.28 155.59 43.28C157.137 43.28 158.47 43.5867 159.59 44.2C160.71 44.8133 161.577 45.64 162.19 46.68V43.56H170.03V66H162.19V62.88C161.577 63.92 160.697 64.7467 159.55 65.36C158.43 65.9733 157.11 66.28 155.59 66.28C153.804 66.28 152.177 65.8133 150.71 64.88C149.27 63.9467 148.124 62.6133 147.27 60.88C146.444 59.12 146.03 57.08 146.03 54.76ZM162.19 54.76C162.19 53.32 161.79 52.1867 160.99 51.36C160.217 50.5333 159.257 50.12 158.11 50.12C156.937 50.12 155.964 50.5333 155.19 51.36C154.417 52.16 154.03 53.2933 154.03 54.76C154.03 56.2 154.417 57.3467 155.19 58.2C155.964 59.0267 156.937 59.44 158.11 59.44C159.257 59.44 160.217 59.0267 160.99 58.2C161.79 57.3733 162.19 56.2267 162.19 54.76ZM187.738 59.32V66H184.338C178.605 66 175.738 63.16 175.738 57.48V50.08H172.978V43.56H175.738V38.12H183.618V43.56H187.698V50.08H183.618V57.6C183.618 58.2133 183.751 58.6533 184.018 58.92C184.311 59.1867 184.791 59.32 185.458 59.32H187.738ZM199.174 47.52C200.054 46.24 201.12 45.2267 202.374 44.48C203.627 43.7333 204.974 43.36 206.414 43.36V51.72H204.214C202.507 51.72 201.24 52.0533 200.414 52.72C199.587 53.3867 199.174 54.5467 199.174 56.2V66H191.334V43.56H199.174V47.52ZM213.184 41.48C211.798 41.48 210.678 41.1067 209.824 40.36C208.998 39.5867 208.584 38.6267 208.584 37.48C208.584 36.3067 208.998 35.3333 209.824 34.56C210.678 33.7867 211.798 33.4 213.184 33.4C214.544 33.4 215.638 33.7867 216.464 34.56C217.318 35.3333 217.744 36.3067 217.744 37.48C217.744 38.6267 217.318 39.5867 216.464 40.36C215.638 41.1067 214.544 41.48 213.184 41.48ZM217.064 43.56V66H209.224V43.56H217.064ZM235.529 66L231.489 60.36L228.289 66H219.689L227.169 54.36L219.369 43.56H228.169L232.209 49.2L235.449 43.56H244.049L236.409 55L244.329 66H235.529ZM256.206 66.28C254.18 66.28 252.366 65.9467 250.766 65.28C249.193 64.5867 247.94 63.6533 247.006 62.48C246.1 61.28 245.593 59.9333 245.486 58.44H253.086C253.193 59.16 253.526 59.72 254.086 60.12C254.646 60.52 255.34 60.72 256.166 60.72C256.806 60.72 257.313 60.5867 257.686 60.32C258.06 60.0533 258.246 59.7067 258.246 59.28C258.246 58.72 257.94 58.3067 257.326 58.04C256.713 57.7733 255.7 57.48 254.286 57.16C252.686 56.84 251.353 56.48 250.286 56.08C249.22 55.68 248.286 55.0267 247.486 54.12C246.713 53.2133 246.326 51.9867 246.326 50.44C246.326 49.1067 246.686 47.9067 247.406 46.84C248.126 45.7467 249.18 44.88 250.566 44.24C251.98 43.6 253.673 43.28 255.646 43.28C258.58 43.28 260.886 44 262.566 45.44C264.246 46.88 265.22 48.7733 265.486 51.12H258.406C258.273 50.4 257.953 49.8533 257.446 49.48C256.966 49.08 256.313 48.88 255.486 48.88C254.846 48.88 254.353 49 254.006 49.24C253.686 49.48 253.526 49.8133 253.526 50.24C253.526 50.7733 253.833 51.1867 254.446 51.48C255.06 51.7467 256.046 52.0267 257.406 52.32C259.033 52.6667 260.38 53.0533 261.446 53.48C262.54 53.9067 263.486 54.6 264.286 55.56C265.113 56.4933 265.526 57.7733 265.526 59.4C265.526 60.7067 265.14 61.88 264.366 62.92C263.62 63.96 262.54 64.7867 261.126 65.4C259.74 65.9867 258.1 66.28 256.206 66.28ZM273.181 66.32C271.794 66.32 270.674 65.9467 269.821 65.2C268.994 64.4267 268.581 63.4533 268.581 62.28C268.581 61.1067 268.994 60.1333 269.821 59.36C270.674 58.5867 271.794 58.2 273.181 58.2C274.541 58.2 275.634 58.5867 276.461 59.36C277.314 60.1333 277.741 61.1067 277.741 62.28C277.741 63.4267 277.314 64.3867 276.461 65.16C275.634 65.9333 274.541 66.32 273.181 66.32Z"/></svg>