<svg xmlns="http://www.w3.org/2000/svg" width="1230" viewBox="0 0 1230 150" height="150" version="1.0"><defs><clipPath id="a"><path d="M 28.269531 0 L 794.867188 0 L 794.867188 150 L 28.269531 150 Z M 28.269531 0"/></clipPath></defs><path fill="#FFF" d="M-123 -15H1353V165H-123z"/><path fill="#FFF" d="M-123 -15H1353V165H-123z"/><path fill="#FFF" d="M-123 -15H1353V165H-123z"/><g clip-path="url(#a)"><path fill="#FFD3D3" d="M 794.859375 10.09375 C 794.859375 9.707031 794.746094 9.128906 794.210938 8.59375 C 789.632812 4.027344 732.34375 4.210938 613.574219 5.015625 C 560.136719 5.382812 499.5625 5.792969 439.019531 5.539062 C 375.414062 5.273438 312.171875 3.644531 256.375 2.210938 C 147.921875 -0.585938 91.011719 -1.726562 84.167969 4.9375 C 83.351562 5.734375 83.183594 6.5625 83.183594 7.125 L 83.183594 41.515625 C 77.535156 39.015625 65.351562 38.566406 57.265625 38.566406 C 46.4375 38.566406 28.269531 39.378906 28.269531 44.820312 C 28.269531 45.085938 28.335938 45.34375 28.46875 45.574219 L 52.246094 87.792969 L 28.570312 136.835938 C 28.492188 136.976562 28.417969 137.125 28.367188 137.277344 C 28.082031 138.046875 28.449219 138.910156 29.207031 139.226562 C 29.96875 139.554688 30.839844 139.222656 31.203125 138.480469 L 31.269531 138.34375 C 33.503906 135.457031 60.957031 139.132812 83.039062 142.089844 C 109.941406 145.683594 142.527344 150.042969 169.066406 150.042969 C 189.042969 150.042969 205.597656 147.574219 213.738281 140.449219 C 217.515625 137.148438 219.429688 132.964844 219.429688 128.015625 L 219.503906 101.097656 C 219.503906 100.835938 219.417969 100.601562 219.304688 100.386719 C 255.761719 100.609375 296.835938 101.820312 338.742188 103.054688 C 371.660156 104.023438 405.703125 105.023438 438.992188 105.605469 C 513.257812 106.921875 588.007812 106.871094 648.0625 106.835938 C 719.269531 106.789062 780.894531 106.75 786.652344 109.359375 C 786.964844 109.914062 787.59375 110.226562 788.230469 110.125 C 788.945312 110.007812 789.484375 109.414062 789.53125 108.691406 C 789.554688 108.316406 789.457031 107.949219 789.265625 107.625 L 770.085938 58.269531 L 794.6875 10.796875 C 794.800781 10.582031 794.855469 10.339844 794.859375 10.09375"/><path fill="#100F0D" d="M 767.035156 57.46875 C 766.828125 57.863281 766.800781 58.324219 766.960938 58.738281 L 785.320312 105.980469 C 773.734375 103.886719 734.804688 103.691406 648.0625 103.753906 C 588.007812 103.789062 513.277344 103.835938 439.046875 102.523438 C 405.773438 101.941406 371.738281 100.941406 338.832031 99.96875 C 214.390625 96.308594 106.917969 93.148438 86.78125 112.699219 C 86.601562 112.875 86.425781 113.054688 86.257812 113.238281 L 86.246094 44.898438 C 86.246094 44.871094 86.265625 44.84375 86.265625 44.820312 C 86.265625 44.765625 86.246094 44.71875 86.246094 44.664062 L 86.242188 7.238281 C 87.058594 5.757812 94.628906 3.238281 136.046875 3.089844 C 137.523438 3.082031 139.015625 3.082031 140.546875 3.082031 C 170.445312 3.082031 210.390625 4.105469 256.296875 5.292969 C 312.105469 6.726562 375.363281 8.359375 439.015625 8.625 C 499.570312 8.875 560.148438 8.46875 613.597656 8.097656 C 703.824219 7.492188 782.117188 6.957031 791.390625 10.453125 Z M 211.710938 138.132812 C 193.8125 153.800781 130.023438 145.261719 83.445312 139.027344 C 55.199219 135.246094 40.058594 133.464844 33.085938 134.574219 L 55.375 88.410156 C 55.597656 87.957031 55.578125 87.421875 55.332031 86.980469 L 31.546875 44.761719 C 33.242188 43.425781 41.976562 41.648438 57.265625 41.648438 C 73.292969 41.648438 82.109375 43.597656 83.183594 44.949219 L 83.183594 120.570312 C 83.183594 124.503906 84.589844 127.660156 87.367188 129.953125 C 91.351562 133.242188 98.011719 134.507812 106.300781 134.507812 C 120.246094 134.507812 138.804688 130.929688 156.972656 127.425781 C 181.679688 122.660156 207.21875 117.734375 214.433594 123.691406 C 215.722656 124.757812 216.347656 126.167969 216.347656 128.007812 C 216.347656 132.09375 214.832031 135.402344 211.710938 138.132812 Z M 794.859375 10.09375 C 794.859375 9.707031 794.746094 9.128906 794.210938 8.59375 C 789.632812 4.027344 732.34375 4.210938 613.574219 5.015625 C 560.136719 5.382812 499.5625 5.792969 439.019531 5.539062 C 375.414062 5.273438 312.171875 3.644531 256.375 2.210938 C 147.921875 -0.585938 91.011719 -1.726562 84.167969 4.9375 C 83.351562 5.734375 83.183594 6.5625 83.183594 7.125 L 83.183594 41.515625 C 77.535156 39.015625 65.351562 38.566406 57.265625 38.566406 C 46.4375 38.566406 28.269531 39.378906 28.269531 44.820312 C 28.269531 45.085938 28.335938 45.34375 28.46875 45.574219 L 52.246094 87.792969 L 28.570312 136.835938 C 28.492188 136.976562 28.417969 137.125 28.367188 137.277344 C 28.082031 138.046875 28.449219 138.910156 29.207031 139.226562 C 29.96875 139.554688 30.839844 139.222656 31.203125 138.480469 L 31.269531 138.34375 C 33.503906 135.457031 60.957031 139.132812 83.039062 142.089844 C 109.941406 145.683594 142.527344 150.042969 169.066406 150.042969 C 189.042969 150.042969 205.597656 147.574219 213.738281 140.449219 C 217.515625 137.148438 219.429688 132.964844 219.429688 128.015625 L 219.503906 101.097656 C 219.503906 100.835938 219.417969 100.601562 219.304688 100.386719 C 255.761719 100.609375 296.835938 101.820312 338.742188 103.054688 C 371.660156 104.023438 405.703125 105.023438 438.992188 105.605469 C 513.257812 106.921875 588.007812 106.871094 648.0625 106.835938 C 719.269531 106.789062 780.894531 106.75 786.652344 109.359375 C 786.964844 109.914062 787.59375 110.226562 788.230469 110.125 C 788.945312 110.007812 789.484375 109.414062 789.53125 108.691406 C 789.554688 108.316406 789.457031 107.949219 789.265625 107.625 L 770.085938 58.269531 L 794.6875 10.796875 C 794.800781 10.582031 794.855469 10.339844 794.859375 10.09375"/></g><g><g><g><path d="M 38.582031 -15.003906 C 38.519531 -15.265625 38.648438 -15.914062 38.519531 -16.304688 C 38.386719 -16.691406 38.324219 -18.253906 37.542969 -19.03125 C 36.246094 -19.8125 35.398438 -21.890625 34.492188 -22.992188 C 33.125 -24.746094 31.242188 -26.304688 29.164062 -27.28125 C 28.449219 -27.734375 27.867188 -27.734375 27.800781 -28.449219 C 28.253906 -28.773438 29.683594 -30.984375 29.683594 -33.515625 C 29.683594 -34.816406 28.644531 -35.335938 28.253906 -36.570312 C 27.996094 -37.480469 26.632812 -37.671875 26.113281 -38.324219 C 25.265625 -39.296875 25.007812 -40.335938 24.03125 -41.3125 C 23.058594 -42.480469 21.695312 -42.675781 20.332031 -42.480469 C 15.652344 -41.894531 15.847656 -40.984375 13.054688 -37.738281 C 12.992188 -38.0625 12.796875 -42.480469 12.277344 -45.011719 C 12.144531 -45.792969 11.105469 -46.636719 10.523438 -47.15625 C 10.003906 -47.613281 9.289062 -47.804688 8.574219 -47.9375 C 8.445312 -48.132812 7.40625 -49.039062 7.210938 -49.105469 C 6.234375 -49.429688 5.847656 -50.40625 4.742188 -49.949219 C 4.285156 -49.625 4.613281 -48.324219 4.546875 -47.871094 C 4.351562 -46.183594 4.09375 -44.429688 4.15625 -42.804688 C 4.15625 -42.351562 4.351562 -40.078125 4.027344 -39.6875 C 4.027344 -38.84375 3.765625 -37.867188 3.765625 -37.023438 C 3.378906 -34.554688 3.3125 -32.085938 3.117188 -29.683594 C 2.726562 -24.554688 2.535156 -19.160156 2.726562 -14.09375 C 2.726562 -12.730469 2.46875 -11.757812 2.664062 -10.457031 C 2.792969 -9.027344 3.246094 -7.730469 3.378906 -6.367188 C 3.441406 -5.328125 3.765625 -4.222656 4.15625 -3.3125 C 4.417969 -2.46875 5.390625 -1.429688 5.390625 -0.585938 C 6.105469 0.324219 7.078125 1.625 8.378906 1.429688 C 9.613281 0.390625 8.964844 0.453125 8.964844 -0.910156 C 8.964844 -1.363281 10.328125 -11.300781 10.394531 -11.820312 C 10.523438 -12.992188 10.523438 -13.964844 10.78125 -15.003906 C 10.976562 -15.589844 10.847656 -16.171875 11.042969 -16.824219 C 11.171875 -17.472656 11.691406 -18.253906 11.5625 -18.964844 C 10.71875 -22.214844 12.082031 -25.460938 12.40625 -28.90625 C 12.796875 -30.527344 13.511719 -32.152344 14.03125 -33.839844 C 14.679688 -36.308594 16.5625 -39.753906 18.253906 -40.140625 C 20.265625 -41.507812 22.734375 -38.777344 21.953125 -36.632812 C 21.953125 -34.035156 21.175781 -33.582031 20.007812 -31.761719 C 19.226562 -30.660156 18.382812 -30.203125 17.40625 -29.359375 C 16.886719 -29.359375 15.980469 -28.320312 15.460938 -27.996094 C 14.613281 -27.605469 12.667969 -26.824219 13.1875 -25.722656 C 13.445312 -24.746094 14.875 -23.320312 15.71875 -22.800781 C 16.824219 -22.019531 19.292969 -21.824219 20.589844 -22.214844 C 21.371094 -22.472656 26.371094 -25.460938 26.175781 -26.242188 C 26.242188 -26.242188 27.539062 -26.046875 27.734375 -25.722656 C 29.164062 -24.746094 30.789062 -23.253906 31.566406 -21.824219 C 32.542969 -20.199219 32.738281 -17.734375 32.414062 -15.914062 C 31.503906 -11.042969 26.957031 -8.445312 26.632812 -8.183594 C 25.460938 -7.339844 22.863281 -5.78125 19.355469 -5.78125 C 18.511719 -5.78125 17.277344 -6.429688 16.628906 -6.820312 C 16.171875 -7.664062 11.953125 -9.875 13.835938 -7.339844 C 13.835938 -6.300781 18.058594 -3.765625 18.902344 -3.054688 C 20.265625 -1.820312 22.863281 -1.039062 24.292969 -0.910156 C 25.59375 -0.78125 26.566406 -1.234375 27.800781 -1.429688 C 28.253906 -1.492188 32.933594 -4.285156 33.386719 -4.804688 C 33.90625 -5.390625 34.492188 -5.910156 35.140625 -6.429688 C 35.53125 -6.820312 35.917969 -7.144531 36.4375 -7.46875 C 37.152344 -7.859375 37.089844 -8.183594 38.257812 -11.496094 C 38.777344 -12.667969 38.128906 -14.03125 38.582031 -15.003906 Z M 38.582031 -15.003906" transform="translate(117.142 79.375)"/></g></g></g><g><g><g><path d="M 8.898438 -5.976562 C 10.914062 -6.820312 12.667969 -7.925781 13.574219 -10.132812 C 13.707031 -10.394531 13.769531 -10.457031 13.964844 -10.523438 C 14.289062 -10.847656 14.355469 -10.71875 14.746094 -10.132812 C 14.746094 -10.066406 14.808594 -10.066406 14.808594 -10.003906 C 15.265625 -9.222656 15.914062 -8.769531 16.5625 -8.3125 C 17.019531 -7.925781 18.253906 -7.730469 18.773438 -7.601562 C 19.097656 -7.46875 20.460938 -7.792969 20.65625 -8.054688 C 20.785156 -8.3125 21.433594 -8.832031 21.890625 -9.09375 C 22.410156 -9.417969 23.578125 -11.042969 24.292969 -12.472656 C 25.007812 -13.769531 26.175781 -15.132812 27.019531 -18.316406 C 27.152344 -18.835938 27.605469 -19.292969 26.695312 -20.007812 C 25.980469 -20.589844 25.722656 -20.265625 25.59375 -19.617188 C 25.203125 -17.277344 24.359375 -16.367188 23.644531 -14.484375 C 23.320312 -13.640625 21.5 -11.105469 21.433594 -10.914062 C 21.371094 -10.71875 20.71875 -10.394531 20.460938 -10.199219 C 19.484375 -9.613281 19.03125 -9.742188 18.707031 -9.808594 C 17.019531 -10.199219 16.367188 -11.171875 16.433594 -12.796875 C 16.367188 -13.445312 15.914062 -13.964844 15.914062 -14.550781 C 15.847656 -14.808594 15.847656 -14.941406 15.847656 -15.199219 C 15.914062 -15.328125 15.914062 -15.460938 15.914062 -15.523438 C 15.914062 -16.433594 15.980469 -17.214844 15.980469 -18.121094 C 16.042969 -18.316406 16.109375 -18.511719 16.304688 -18.640625 L 16.5 -19.355469 C 16.5 -19.746094 16.433594 -19.941406 15.914062 -19.941406 C 15.460938 -19.941406 14.941406 -19.941406 14.417969 -19.875 C 14.03125 -19.875 13.769531 -19.617188 13.769531 -19.226562 C 13.707031 -17.796875 13.378906 -16.5 13.445312 -14.941406 C 13.445312 -14.550781 13.316406 -14.160156 13.1875 -13.769531 C 12.472656 -12.472656 11.820312 -11.105469 10.78125 -10.003906 C 10.199219 -9.417969 9.679688 -8.703125 8.832031 -8.25 C 8.3125 -7.925781 8.054688 -7.988281 7.664062 -8.445312 C 6.753906 -9.417969 5.976562 -10.457031 6.234375 -11.691406 C 6.496094 -12.730469 6.558594 -13.769531 7.273438 -14.613281 C 7.273438 -14.679688 7.339844 -14.746094 7.339844 -14.808594 C 7.535156 -15.847656 8.445312 -16.5625 8.640625 -17.601562 C 8.703125 -17.667969 8.703125 -17.734375 8.769531 -17.734375 C 9.484375 -18.121094 9.9375 -18.835938 10.328125 -19.550781 C 10.394531 -19.679688 10.523438 -19.8125 10.652344 -19.875 C 10.78125 -20.070312 10.976562 -20.265625 10.976562 -20.394531 C 11.171875 -21.046875 11.5625 -21.371094 12.015625 -21.628906 C 12.535156 -21.953125 13.511719 -22.28125 13.835938 -22.539062 C 14.09375 -22.800781 14.289062 -23.058594 14.484375 -23.1875 C 14.941406 -23.511719 15.070312 -23.773438 14.875 -24.292969 C 14.417969 -25.332031 13.640625 -26.046875 12.601562 -26.5 C 12.082031 -26.761719 11.691406 -26.890625 11.238281 -27.085938 C 10.457031 -27.539062 10.066406 -27.214844 9.160156 -27.539062 C 8.574219 -27.734375 7.859375 -27.671875 7.339844 -28.058594 C 7.144531 -28.253906 6.820312 -28.125 6.753906 -27.867188 C 6.429688 -27.28125 5.910156 -26.890625 5.585938 -26.5 C 4.15625 -24.941406 2.664062 -23.382812 1.753906 -21.433594 C 0.972656 -19.746094 0.261719 -18.058594 0.195312 -16.171875 C 0.128906 -14.746094 -0.453125 -10.847656 1.753906 -8.574219 C 2.792969 -7.535156 4.09375 -6.753906 5.652344 -6.558594 C 6.625 -6.496094 7.601562 -6.300781 8.507812 -6.039062 C 8.640625 -5.976562 8.769531 -5.976562 8.898438 -5.976562 Z M 8.898438 -5.976562" transform="translate(161.05 79.375)"/></g></g></g><g><g><g><path d="M 5.78125 -1.753906 C 6.039062 -1.625 6.429688 -1.558594 6.625 -1.753906 C 7.40625 -2.273438 8.25 -2.792969 8.507812 -3.832031 C 8.640625 -4.15625 8.832031 -4.546875 8.898438 -4.804688 C 9.222656 -5.847656 9.546875 -6.820312 9.351562 -7.792969 C 9.222656 -9.289062 9.160156 -10.199219 8.769531 -11.5625 C 8.769531 -11.691406 8.898438 -12.277344 8.769531 -12.339844 C 8.832031 -12.992188 9.027344 -14.03125 9.546875 -14.550781 C 10.585938 -15.589844 10.847656 -15.980469 12.015625 -16.757812 C 13.445312 -17.734375 14.417969 -18.835938 16.042969 -20.199219 C 16.433594 -20.527344 16.433594 -20.785156 16.367188 -21.109375 C 16.304688 -21.433594 16.109375 -21.824219 15.847656 -21.628906 C 13.378906 -19.484375 12.277344 -18.707031 11.5625 -18.1875 C 9.417969 -16.628906 9.289062 -16.171875 8.507812 -15.71875 C 7.925781 -15.394531 7.535156 -15.914062 7.535156 -16.238281 C 7.40625 -16.5 7.339844 -16.691406 7.210938 -16.824219 C 7.078125 -17.148438 6.949219 -17.40625 6.820312 -17.796875 C 6.300781 -19.160156 6.886719 -21.5 7.210938 -22.472656 C 7.730469 -24.03125 8.574219 -25.917969 8.25 -27.085938 C 8.121094 -27.734375 7.40625 -27.800781 6.300781 -28.320312 C 4.871094 -29.035156 3.574219 -29.359375 2.144531 -28.90625 C 0.84375 -28.515625 0.324219 -28.320312 -0.585938 -27.476562 C -0.78125 -27.28125 -0.972656 -27.152344 -0.972656 -26.890625 C -0.910156 -25.074219 -1.625 -23.382812 -1.105469 -21.566406 C -0.910156 -20.914062 -0.910156 -20.199219 -0.910156 -19.617188 C -0.324219 -17.992188 0.585938 -16.5 1.6875 -15.199219 C 1.949219 -15.199219 2.144531 -15.003906 2.46875 -14.808594 L 3.765625 -13.640625 C 4.222656 -13.25 4.742188 -13.1875 5.261719 -12.992188 C 5.78125 -12.472656 5.78125 -12.144531 5.390625 -11.496094 C 5.195312 -11.042969 4.9375 -10.652344 4.804688 -10.199219 C 4.222656 -8.25 3.507812 -6.367188 3.507812 -4.285156 C 3.378906 -4.09375 3.378906 -3.765625 3.378906 -3.441406 C 3.441406 -3.246094 3.636719 -2.921875 3.832031 -2.792969 C 4.546875 -2.207031 5.195312 -2.144531 5.78125 -1.753906 Z M 5.585938 -3.574219 C 5 -4.09375 4.804688 -4.613281 4.871094 -5.390625 C 4.9375 -7.015625 5.585938 -8.574219 6.367188 -9.9375 C 6.429688 -10.003906 6.625 -10.394531 6.820312 -10.066406 C 7.273438 -8.25 7.273438 -6.300781 6.886719 -4.351562 L 6.625 -3.832031 C 6.367188 -3.246094 6.039062 -3.246094 5.585938 -3.574219 Z M 5.585938 -3.574219" transform="translate(187.16 79.375)"/></g></g></g><g><g><g><path d="M 5.976562 -6.625 C 6.820312 -6.234375 7.664062 -6.691406 8.445312 -6.691406 C 8.507812 -6.753906 8.640625 -6.753906 8.769531 -6.753906 C 9.351562 -6.949219 10.003906 -6.949219 10.457031 -7.015625 C 13.1875 -7.925781 17.34375 -12.40625 18.707031 -16.109375 C 18.707031 -16.304688 18.773438 -16.757812 19.746094 -18.578125 C 20.199219 -19.421875 19.875 -19.421875 19.550781 -19.746094 C 18.964844 -20.332031 18.773438 -19.941406 18.578125 -19.292969 C 18.511719 -18.964844 18.253906 -18.511719 18.058594 -18.253906 C 17.601562 -17.667969 17.214844 -16.886719 17.019531 -16.238281 C 14.808594 -11.5625 12.535156 -10.066406 10.261719 -9.160156 C 9.679688 -8.898438 9.289062 -8.898438 8.832031 -9.351562 C 8.445312 -10.132812 8.054688 -10.914062 7.925781 -11.757812 C 7.859375 -12.144531 8.445312 -13.1875 8.574219 -13.445312 C 9.808594 -15.070312 10.457031 -16.953125 11.691406 -18.578125 C 11.953125 -18.902344 12.144531 -19.421875 12.210938 -20.007812 C 12.472656 -21.109375 12.535156 -22.148438 12.796875 -23.320312 C 13.1875 -24.488281 12.730469 -25.398438 12.277344 -26.304688 C 11.820312 -27.019531 11.300781 -27.28125 10.585938 -27.28125 C 10.523438 -27.28125 10.394531 -27.214844 10.199219 -27.28125 C 10.066406 -27.214844 9.875 -27.347656 9.679688 -27.347656 C 6.753906 -27.671875 5.519531 -28.386719 2.597656 -23.902344 C 1.753906 -22.539062 0.910156 -21.5 0.453125 -20.136719 C -0.324219 -17.863281 -0.78125 -15.652344 -0.261719 -13.25 C 0.0664062 -10.78125 1.167969 -9.027344 2.792969 -7.792969 C 3.960938 -6.949219 5.132812 -6.886719 5.976562 -6.625 Z M 7.859375 -15.980469 C 7.859375 -16.367188 7.339844 -18.578125 7.40625 -18.902344 C 7.40625 -19.03125 7.535156 -19.160156 7.535156 -19.355469 C 7.535156 -20.332031 7.859375 -21.109375 8.25 -21.890625 C 8.445312 -22.539062 8.703125 -22.863281 9.027344 -23.382812 C 8.898438 -23.707031 10.199219 -24.488281 10.394531 -23.511719 C 10.847656 -21.238281 9.679688 -18.902344 8.898438 -16.824219 C 8.640625 -16.171875 7.859375 -15.328125 7.859375 -15.980469 Z M 7.859375 -15.980469" transform="translate(203.269 79.375)"/></g></g></g><g><g><g><path d="M 6.429688 -3.636719 C 7.078125 -3.378906 7.664062 -3.507812 8.25 -3.703125 C 9.351562 -4.027344 10.261719 -4.546875 10.914062 -5.585938 L 11.5625 -6.625 C 12.339844 -7.730469 12.859375 -8.898438 12.925781 -10.199219 C 13.054688 -11.042969 13.445312 -12.472656 13.640625 -12.992188 C 14.03125 -14.03125 14.417969 -12.601562 14.746094 -11.886719 C 15.265625 -10.78125 16.042969 -9.808594 16.953125 -9.027344 C 17.40625 -8.25 18.121094 -7.730469 19.03125 -7.535156 C 19.8125 -7.339844 20.65625 -7.210938 21.5 -7.015625 C 21.695312 -7.015625 21.953125 -7.015625 22.148438 -7.144531 C 22.992188 -7.664062 23.902344 -7.988281 24.617188 -8.703125 C 25.527344 -9.546875 26.175781 -10.585938 26.824219 -11.625 C 27.28125 -12.601562 29.425781 -14.941406 30.398438 -19.226562 C 30.527344 -19.875 30.269531 -19.875 29.75 -20.199219 C 29.230469 -20.527344 29.164062 -19.941406 29.097656 -19.679688 C 28.253906 -17.539062 26.046875 -13.707031 25.332031 -12.40625 C 24.746094 -11.238281 23.96875 -10.199219 22.863281 -9.484375 C 22.667969 -9.351562 22.539062 -9.289062 22.410156 -9.289062 C 21.5 -9.027344 20.460938 -9.417969 20.007812 -10.585938 C 19.679688 -11.433594 19.484375 -12.40625 19.484375 -13.378906 C 19.355469 -13.511719 19.292969 -13.707031 19.292969 -13.898438 C 19.421875 -16.304688 19.226562 -18.707031 19.355469 -21.175781 C 19.421875 -23.1875 19.679688 -23.902344 19.746094 -25.917969 C 19.875 -29.8125 19.941406 -33.710938 21.175781 -37.414062 L 21.371094 -39.363281 C 21.433594 -40.53125 21.304688 -41.570312 21.046875 -42.546875 C 20.589844 -42.871094 20.070312 -43.195312 19.617188 -43.453125 C 18.382812 -44.300781 17.019531 -44.167969 15.652344 -43.84375 C 15.070312 -43.648438 14.550781 -43.195312 14.550781 -42.546875 C 14.484375 -41.960938 14.289062 -41.441406 14.09375 -40.921875 C 13.707031 -39.882812 13.378906 -38.84375 13.1875 -37.738281 C 12.925781 -36.375 12.796875 -34.945312 12.472656 -33.644531 C 11.820312 -31.179688 11.691406 -28.644531 11.433594 -26.113281 C 11.367188 -25.527344 11.757812 -24.683594 11.105469 -24.421875 C 10.585938 -24.226562 9.875 -24.617188 9.289062 -24.683594 C 9.222656 -24.683594 9.222656 -24.746094 9.222656 -24.746094 C 8.445312 -25.074219 7.664062 -25.074219 6.886719 -25.074219 C 2.078125 -24.8125 3.574219 -24.683594 0.78125 -20.851562 C 0.648438 -20.007812 0.453125 -19.160156 0.324219 -18.253906 C -0.195312 -15.589844 0 -12.925781 0.648438 -10.261719 C 0.910156 -9.027344 1.558594 -7.988281 2.011719 -6.886719 C 2.664062 -5.457031 3.703125 -4.351562 5.328125 -3.960938 C 5.714844 -3.898438 6.105469 -3.765625 6.429688 -3.636719 Z M 7.859375 -6.300781 C 7.664062 -6.171875 7.46875 -6.300781 7.339844 -6.625 C 7.210938 -6.949219 7.144531 -7.339844 7.015625 -7.859375 C 6.949219 -8.964844 6.886719 -10.261719 6.886719 -11.496094 C 6.886719 -11.953125 7.210938 -12.339844 7.339844 -12.796875 C 7.859375 -14.09375 8.3125 -15.460938 8.769531 -16.824219 C 9.09375 -17.734375 9.546875 -18.578125 10.066406 -19.421875 C 10.328125 -19.8125 10.71875 -20.070312 11.105469 -20.332031 C 11.5625 -20.589844 11.886719 -19.875 11.886719 -19.617188 C 12.277344 -16.691406 11.625 -13.898438 11.105469 -11.105469 C 10.71875 -9.160156 10.132812 -7.601562 8.507812 -6.367188 C 8.3125 -6.234375 8.054688 -6.234375 7.859375 -6.300781 Z M 7.859375 -6.300781" transform="translate(222.885 79.375)"/></g></g></g><g><g><g><path d="M 38.90625 -19.8125 C 38.519531 -20.070312 38.257812 -19.746094 38.191406 -19.550781 C 37.804688 -18.640625 37.285156 -17.34375 36.960938 -16.691406 L 35.855469 -14.679688 C 35.140625 -13.835938 34.296875 -12.730469 33.710938 -12.339844 C 32.542969 -11.496094 32.21875 -11.496094 30.269531 -10.914062 L 28.386719 -10.914062 C 27.476562 -10.976562 27.214844 -11.238281 27.152344 -12.082031 C 27.152344 -12.601562 27.214844 -13.378906 27.347656 -13.769531 C 27.867188 -15.199219 28.125 -16.691406 28.320312 -18.1875 C 28.515625 -19.679688 28.710938 -21.175781 28.773438 -22.734375 C 28.90625 -24.617188 28.773438 -26.4375 28.773438 -28.320312 C 28.773438 -28.644531 28.710938 -28.96875 28.515625 -29.292969 C 28.191406 -29.945312 27.996094 -30.660156 28.058594 -31.566406 C 28.125 -32.414062 27.929688 -33.191406 27.539062 -33.972656 C 27.347656 -34.425781 27.214844 -34.75 27.152344 -35.207031 C 27.085938 -35.855469 26.890625 -36.4375 26.566406 -36.894531 C 25.722656 -37.933594 25.136719 -39.167969 24.164062 -39.945312 C 23.839844 -40.207031 23.644531 -40.53125 23.449219 -40.855469 C 22.863281 -41.765625 22.667969 -41.832031 20.980469 -41.050781 C 20.394531 -40.660156 19.8125 -41.050781 18.835938 -41.441406 C 18.253906 -41.699219 19.875 -43.972656 18.640625 -45.011719 C 17.796875 -45.726562 16.691406 -45.988281 15.785156 -46.246094 C 15.394531 -46.378906 15.199219 -46.507812 14.875 -46.3125 L 14.941406 -46.378906 C 14.484375 -46.050781 13.964844 -46.050781 13.378906 -46.183594 C 12.277344 -46.441406 11.367188 -45.664062 10.199219 -45.402344 C 10.132812 -45.402344 10.066406 -45.339844 10.003906 -45.273438 C 8.640625 -43.972656 7.859375 -42.804688 7.535156 -41.570312 C 7.46875 -41.246094 7.339844 -41.050781 7.210938 -40.792969 C 6.691406 -40.078125 6.429688 -39.234375 5.976562 -38.453125 C 5.261719 -37.023438 4.871094 -35.464844 4.351562 -33.90625 C 3.832031 -32.542969 3.378906 -31.242188 3.183594 -29.8125 C 3.054688 -29.097656 3.054688 -28.386719 2.921875 -27.539062 C 2.402344 -24.8125 2.597656 -21.953125 2.921875 -19.226562 C 3.3125 -15.785156 4.15625 -12.601562 5.457031 -9.546875 C 5.78125 -8.703125 8.445312 -3.507812 9.742188 -2.402344 C 11.496094 -0.972656 12.925781 -0.195312 14.484375 0.0664062 C 15.652344 0.324219 16.757812 0.0664062 17.992188 0 C 18.835938 0 19.550781 -0.0664062 20.265625 -0.390625 C 22.214844 -1.558594 23.578125 -2.988281 24.292969 -4.742188 C 24.8125 -5.78125 25.65625 -7.210938 26.046875 -8.378906 C 26.304688 -9.027344 26.761719 -9.289062 27.476562 -9.222656 C 28.058594 -9.222656 28.644531 -9.289062 29.230469 -9.351562 C 30.464844 -9.546875 31.566406 -9.417969 32.738281 -10.003906 C 34.035156 -10.847656 35.011719 -11.691406 36.050781 -12.859375 C 36.765625 -13.640625 37.480469 -14.03125 39.363281 -18.964844 C 39.558594 -19.484375 39.101562 -19.679688 38.90625 -19.8125 Z M 10.003906 -45.402344 L 10.199219 -45.402344 Z M 25.265625 -14.160156 C 24.941406 -12.859375 24.226562 -11.625 23.320312 -12.601562 C 22.410156 -13.445312 21.046875 -14.355469 20.070312 -15.199219 C 18.835938 -16.238281 17.734375 -18.121094 16.757812 -19.484375 C 16.433594 -19.941406 16.433594 -20.589844 16.238281 -20.980469 C 15.980469 -21.757812 15.589844 -22.472656 15.394531 -23.253906 C 14.289062 -26.5 13.964844 -30.074219 14.550781 -33.839844 C 14.679688 -35.011719 15.328125 -35.984375 15.980469 -36.894531 C 17.34375 -38.777344 19.292969 -38.972656 21.175781 -39.234375 C 21.824219 -39.363281 22.472656 -39.101562 22.929688 -38.519531 C 23.058594 -38.324219 23.1875 -38.191406 23.320312 -37.933594 L 23.253906 -37.933594 C 24.359375 -35.789062 25.527344 -33.644531 25.917969 -31.113281 C 26.242188 -28.644531 26.632812 -26.046875 26.566406 -23.320312 C 26.695312 -20.332031 26.046875 -17.214844 25.265625 -14.160156 Z M 23.578125 -9.160156 C 22.539062 -7.015625 21.5 -4.871094 19.550781 -3.246094 C 17.34375 -1.558594 15.589844 -1.949219 13.835938 -4.480469 C 12.992188 -5.714844 12.535156 -7.210938 12.144531 -8.640625 C 11.886719 -9.546875 11.5625 -10.457031 11.433594 -11.433594 C 11.300781 -12.859375 11.367188 -14.160156 11.105469 -15.394531 C 10.914062 -16.171875 11.171875 -17.082031 11.238281 -17.734375 C 11.238281 -18.640625 11.300781 -19.617188 11.105469 -20.460938 C 11.042969 -21.046875 11.105469 -21.5 11.238281 -21.890625 C 11.367188 -22.148438 11.496094 -25.332031 12.144531 -25.722656 C 13.054688 -26.242188 12.535156 -24.554688 13.121094 -23.253906 C 13.707031 -21.953125 14.03125 -22.019531 14.746094 -20.199219 C 15.914062 -17.277344 17.539062 -15.003906 19.679688 -13.316406 L 20.785156 -12.339844 C 21.433594 -11.691406 22.085938 -11.042969 22.863281 -10.71875 C 23.511719 -10.328125 23.773438 -9.742188 23.578125 -9.160156 Z M 23.578125 -9.160156" transform="translate(271.275 79.375)"/></g></g></g><g><g><g><path d="M 5.261719 -7.339844 C 6.039062 -7.078125 6.558594 -7.339844 6.949219 -8.054688 C 7.273438 -8.640625 7.535156 -9.222656 7.535156 -9.9375 C 8.378906 -11.625 9.09375 -13.378906 10.003906 -15.070312 C 10.585938 -16.238281 11.238281 -17.34375 12.015625 -18.382812 C 12.144531 -18.511719 12.277344 -18.773438 12.601562 -18.578125 C 12.601562 -17.925781 12.535156 -17.277344 12.601562 -16.5625 C 12.925781 -13.640625 14.550781 -11.496094 17.539062 -10.914062 C 18.253906 -10.847656 18.964844 -10.847656 19.617188 -11.171875 C 21.304688 -12.015625 22.28125 -12.667969 23.773438 -14.613281 C 24.683594 -15.847656 24.878906 -16.171875 25.785156 -18.121094 C 25.980469 -18.511719 26.4375 -19.226562 26.4375 -19.617188 C 26.4375 -20.527344 25.59375 -20.332031 25.460938 -20.199219 C 25.007812 -19.941406 24.03125 -17.539062 23.707031 -17.082031 C 22.148438 -14.941406 22.863281 -15.394531 21.433594 -13.964844 C 20.980469 -13.511719 20.136719 -13.25 19.617188 -12.859375 C 19.226562 -12.601562 18.707031 -12.339844 18.121094 -12.472656 C 17.601562 -12.601562 17.214844 -13.316406 17.214844 -13.835938 C 17.277344 -14.289062 17.277344 -14.679688 17.34375 -15.070312 C 17.601562 -16.171875 17.40625 -17.34375 17.925781 -18.511719 C 18.058594 -18.707031 18.121094 -19.03125 17.992188 -19.292969 C 17.734375 -20.007812 17.472656 -20.851562 16.757812 -21.238281 C 15.71875 -21.695312 14.746094 -22.34375 13.445312 -22.085938 L 13.1875 -22.019531 C 12.277344 -21.628906 11.433594 -21.175781 10.78125 -20.460938 C 10.066406 -19.617188 9.289062 -18.835938 8.507812 -17.992188 C 8.507812 -18.707031 8.507812 -19.421875 8.445312 -20.136719 C 8.445312 -20.71875 8.378906 -21.371094 8.3125 -21.953125 C 8.183594 -22.539062 7.859375 -22.992188 7.339844 -23.320312 C 6.429688 -24.097656 5.261719 -24.359375 4.09375 -24.554688 C 3.574219 -24.617188 3.117188 -24.554688 2.597656 -24.359375 C 2.402344 -24.164062 2.144531 -24.03125 1.949219 -23.839844 C 1.820312 -23.707031 1.625 -23.449219 1.429688 -23.1875 C 1.167969 -22.605469 0.972656 -22.019531 0.78125 -21.371094 C 0.648438 -20.785156 0.585938 -20.136719 0.390625 -19.484375 C 0.195312 -18.964844 0.261719 -18.382812 0.128906 -17.863281 L 0.128906 -17.472656 C -0.0664062 -15.589844 -0.0664062 -13.707031 0.453125 -11.820312 C 0.648438 -10.976562 0.84375 -10.199219 1.363281 -9.613281 C 2.46875 -8.445312 3.765625 -7.730469 5.261719 -7.339844 Z M 5.261719 -7.339844" transform="translate(309.857 79.375)"/></g></g></g><g><g><g><path d="M 17.601562 0.972656 C 18.640625 1.300781 19.679688 1.558594 20.460938 0.84375 L 20.980469 0.648438 C 22.863281 0.453125 23.839844 -0.78125 24.8125 -2.011719 C 25.007812 -2.207031 25.203125 -2.402344 25.398438 -2.535156 C 25.851562 -2.921875 26.4375 -3.117188 26.695312 -3.636719 C 27.214844 -4.675781 28.125 -5.519531 28.578125 -6.625 C 28.839844 -7.210938 28.90625 -7.925781 29.230469 -8.507812 C 29.75 -9.679688 30.074219 -11.042969 30.269531 -12.339844 C 30.398438 -12.925781 30.984375 -14.226562 31.308594 -14.679688 C 32.800781 -16.691406 34.6875 -16.691406 36.960938 -17.019531 C 38.84375 -17.277344 40.335938 -18.640625 40.921875 -19.355469 C 41.117188 -19.617188 40.335938 -21.046875 39.621094 -20.265625 C 37.867188 -18.445312 36.4375 -18.382812 35.726562 -18.382812 C 34.359375 -18.382812 32.738281 -17.925781 31.894531 -17.667969 C 30.917969 -17.601562 31.894531 -19.679688 31.894531 -20.265625 C 31.894531 -22.410156 32.414062 -23.773438 32.414062 -27.996094 C 32.152344 -29.75 32.152344 -28.578125 32.21875 -30.332031 C 32.21875 -30.789062 32.28125 -31.242188 32.414062 -31.699219 C 32.671875 -32.476562 32.800781 -33.320312 32.605469 -34.230469 C 32.414062 -35.140625 32.347656 -36.050781 32.542969 -36.828125 C 32.671875 -37.480469 32.671875 -38.128906 32.542969 -38.777344 C 32.476562 -39.101562 32.542969 -39.492188 32.476562 -39.816406 C 32.347656 -40.660156 32.542969 -41.441406 32.28125 -42.285156 C 31.828125 -43.972656 30.269531 -45.207031 28.839844 -45.011719 C 27.996094 -44.882812 27.152344 -44.625 26.371094 -44.234375 C 26.046875 -44.105469 25.785156 -43.84375 25.917969 -43.453125 C 26.242188 -42.027344 25.917969 -40.792969 25.65625 -39.558594 C 25.398438 -38.191406 25.074219 -36.828125 24.746094 -35.464844 C 24.226562 -32.996094 24.488281 -33.386719 23.902344 -30.917969 C 23.511719 -29.425781 22.800781 -28.058594 22.734375 -26.4375 C 22.667969 -25.527344 22.472656 -24.488281 22.019531 -23.773438 C 21.566406 -22.863281 21.109375 -22.148438 20.65625 -21.371094 C 19.617188 -20.070312 18.773438 -19.097656 18.511719 -18.902344 C 17.992188 -18.382812 17.601562 -18.253906 16.757812 -18.253906 C 16.367188 -18.253906 15.914062 -18.835938 15.914062 -19.292969 C 16.109375 -20.65625 15.980469 -22.019531 16.367188 -23.320312 C 16.5625 -23.96875 16.691406 -24.683594 16.628906 -25.398438 C 16.5625 -26.175781 16.886719 -30.59375 16.691406 -29.683594 C 17.214844 -32.414062 16.5625 -37.089844 15.132812 -39.753906 C 14.289062 -41.3125 14.355469 -42.609375 13.121094 -43.777344 C 11.5625 -45.207031 11.105469 -45.792969 9.160156 -45.859375 C 7.078125 -45.859375 5.261719 -45.402344 3.507812 -44.6875 C 3.117188 -44.558594 2.859375 -44.234375 2.664062 -43.84375 C 2.402344 -43.195312 2.726562 -42.738281 3.441406 -42.738281 C 4.15625 -42.738281 4.675781 -42.933594 5.328125 -43.066406 C 6.691406 -43.390625 7.144531 -43.066406 7.40625 -41.636719 C 7.40625 -41.375 7.46875 -41.117188 7.40625 -40.921875 C 7.273438 -40.011719 7.273438 -39.039062 7.015625 -38.128906 C 6.429688 -35.59375 5.910156 -31.113281 6.171875 -28.386719 C 6.429688 -25.398438 7.078125 -22.539062 8.3125 -19.679688 C 8.964844 -18.316406 9.9375 -17.082031 11.300781 -16.171875 C 12.144531 -15.589844 11.691406 -15.394531 12.535156 -15.132812 C 14.226562 -14.550781 16.238281 -14.746094 17.539062 -15.589844 C 18.121094 -15.914062 19.421875 -17.539062 19.941406 -17.992188 C 20.460938 -18.445312 21.890625 -19.679688 22.992188 -21.433594 C 23.320312 -21.953125 22.992188 -19.550781 22.863281 -17.992188 C 22.667969 -15.328125 23.125 -15.003906 22.539062 -14.613281 C 22.148438 -14.289062 21.695312 -14.03125 21.433594 -13.511719 C 20.589844 -12.796875 19.875 -11.886719 19.292969 -10.914062 C 18.964844 -10.457031 18.707031 -9.9375 18.253906 -9.546875 C 16.433594 -7.859375 16.042969 -5.328125 15.328125 -2.988281 C 15.199219 -2.726562 15.199219 -2.273438 15.328125 -1.949219 C 15.394531 -1.625 15.460938 -1.363281 15.460938 -1.039062 C 15.652344 -0.585938 15.980469 -0.128906 16.304688 0.324219 C 16.691406 0.585938 17.148438 0.84375 17.601562 0.972656 Z M 18.382812 -2.011719 C 17.472656 -1.949219 17.277344 -2.402344 17.214844 -3.183594 C 17.148438 -4.351562 17.34375 -5.457031 17.863281 -6.429688 C 18.835938 -8.378906 20.070312 -10.066406 21.757812 -11.433594 C 21.953125 -11.5625 22.214844 -11.757812 22.214844 -12.015625 C 22.605469 -11.953125 23.125 -12.015625 23.058594 -11.238281 C 22.992188 -10.328125 23.058594 -9.351562 22.734375 -8.445312 C 21.890625 -5.910156 20.527344 -3.703125 18.445312 -2.011719 Z M 18.382812 -2.011719" transform="translate(354.154 79.375)"/></g></g></g><g><g><g><path d="M 8.832031 -6.300781 C 9.546875 -6.300781 10.066406 -6.625 10.394531 -7.210938 C 10.847656 -7.988281 11.5625 -8.640625 12.015625 -9.417969 C 12.992188 -10.71875 13.769531 -12.015625 13.640625 -13.707031 C 13.640625 -14.03125 13.640625 -14.355469 13.769531 -14.679688 C 13.964844 -15.589844 13.964844 -15.980469 14.09375 -16.824219 C 14.160156 -17.601562 14.160156 -17.601562 14.941406 -17.601562 C 16.5625 -17.601562 17.472656 -18.1875 18.253906 -18.382812 C 18.964844 -18.578125 19.617188 -18.835938 20.136719 -19.292969 C 20.332031 -19.421875 20.71875 -19.8125 20.71875 -20.527344 C 20.71875 -20.980469 20.589844 -21.175781 19.941406 -20.71875 C 18.835938 -19.941406 18.445312 -19.8125 17.796875 -19.617188 C 17.082031 -19.421875 16.109375 -19.355469 14.875 -19.355469 C 14.160156 -19.355469 14.09375 -19.941406 13.964844 -20.65625 C 13.769531 -21.433594 13.511719 -22.148438 13.316406 -22.863281 C 12.992188 -23.578125 12.144531 -23.902344 11.625 -24.421875 C 11.625 -24.488281 11.5625 -24.554688 11.5625 -24.554688 C 10.199219 -25.722656 8.703125 -25.527344 7.210938 -25.203125 C 6.753906 -25.074219 6.171875 -24.878906 5.78125 -24.554688 C 5.714844 -24.421875 5.457031 -24.359375 5.261719 -24.421875 C 4.480469 -24.8125 3.574219 -24.617188 2.792969 -25.074219 C 2.339844 -25.332031 1.949219 -25.398438 1.492188 -25.59375 C 1.105469 -25.785156 0.910156 -25.65625 0.714844 -25.398438 C 0.519531 -25.136719 0.390625 -24.941406 0.390625 -24.617188 C 0.453125 -24.226562 0.324219 -23.839844 0.195312 -23.382812 C 0 -22.605469 -0.195312 -21.824219 -0.453125 -21.046875 C -1.167969 -18.253906 -1.363281 -15.394531 -0.453125 -12.601562 C 0.128906 -10.78125 0.910156 -9.222656 2.597656 -8.121094 C 4.480469 -6.820312 6.625 -6.367188 8.832031 -6.300781 Z M 10.585938 -19.8125 C 9.613281 -20.136719 8.769531 -21.046875 8.640625 -21.824219 C 8.574219 -22.410156 8.574219 -22.800781 9.09375 -23.125 C 9.808594 -23.382812 10.328125 -23.253906 10.847656 -23.058594 C 12.082031 -22.605469 12.667969 -21.433594 12.730469 -20.460938 C 12.796875 -19.292969 12.730469 -19.160156 10.585938 -19.8125 Z M 8.769531 -8.964844 C 7.925781 -8.183594 6.949219 -8.378906 6.558594 -9.351562 C 6.429688 -9.613281 6.429688 -9.875 6.300781 -10.199219 C 6.171875 -11.171875 6.234375 -12.210938 6.691406 -13.1875 C 7.078125 -14.226562 7.144531 -15.199219 7.339844 -16.238281 C 7.46875 -17.148438 7.859375 -17.992188 7.859375 -18.902344 C 7.859375 -19.292969 8.121094 -19.421875 8.574219 -19.160156 C 9.351562 -18.707031 10.199219 -18.253906 11.171875 -18.121094 L 11.433594 -18.058594 C 12.796875 -17.734375 12.859375 -17.734375 12.601562 -16.5625 C 12.144531 -14.355469 11.367188 -12.144531 10.003906 -10.132812 C 9.679688 -9.679688 9.222656 -9.289062 8.769531 -8.964844 Z M 8.769531 -8.964844" transform="translate(394.23 79.375)"/></g></g></g><g><g><g><path d="M 7.015625 -8.964844 C 7.339844 -9.027344 7.46875 -9.484375 7.664062 -9.417969 C 8.964844 -10.066406 9.289062 -11.496094 9.484375 -11.691406 C 10.132812 -12.144531 10.914062 -15.914062 11.171875 -15.914062 C 12.144531 -14.484375 11.886719 -12.472656 13.511719 -11.300781 C 14.613281 -10.523438 16.367188 -10.71875 17.667969 -11.886719 C 18.382812 -12.472656 21.757812 -15.980469 23.125 -18.707031 C 23.511719 -19.484375 23.320312 -19.484375 23.125 -19.746094 C 22.539062 -20.332031 22.410156 -19.941406 22.28125 -19.746094 C 20.136719 -15.785156 17.667969 -13.964844 17.019531 -13.316406 C 16.5 -13.445312 15.847656 -12.40625 15.132812 -13.121094 C 14.226562 -13.964844 14.226562 -16.5625 14.160156 -17.214844 C 14.226562 -18.1875 15.199219 -21.824219 14.746094 -22.734375 C 14.226562 -23.839844 12.144531 -24.554688 11.171875 -23.96875 C 9.808594 -23.125 9.742188 -18.902344 8.703125 -17.734375 C 8.378906 -17.082031 7.730469 -14.875 6.886719 -14.613281 C 6.753906 -16.886719 7.210938 -19.160156 7.664062 -21.433594 C 7.859375 -23.125 6.234375 -23.902344 5.132812 -24.746094 C 4.742188 -25.074219 4.222656 -26.175781 3.574219 -25.980469 C 2.921875 -25.851562 1.558594 -26.566406 0.972656 -26.046875 C 0.519531 -25.527344 0.390625 -25.917969 0.128906 -24.554688 C -0.128906 -23.382812 -0.648438 -21.238281 -0.648438 -20.007812 C -0.648438 -16.171875 0.390625 -14.03125 2.988281 -10.71875 C 2.664062 -10.132812 4.742188 -9.222656 5.132812 -9.160156 C 5.652344 -9.027344 6.300781 -8.832031 7.015625 -8.964844 Z M 7.015625 -8.964844" transform="translate(415.34 79.375)"/></g></g></g><g><g><g><path d="M 7.273438 -5.976562 C 9.875 -5.195312 12.472656 -5.195312 14.679688 -7.144531 C 15.132812 -7.535156 15.652344 -7.859375 16.109375 -8.3125 C 18.511719 -10.847656 19.097656 -12.015625 21.953125 -18.058594 C 22.410156 -19.03125 22.148438 -18.964844 21.628906 -19.292969 C 21.046875 -19.679688 20.980469 -19.160156 20.851562 -18.964844 C 18.316406 -13.378906 17.925781 -12.992188 17.214844 -11.953125 C 16.691406 -11.105469 16.171875 -10.394531 15.394531 -9.742188 C 13.378906 -8.183594 12.144531 -7.078125 9.546875 -7.730469 C 9.09375 -7.925781 8.964844 -8.183594 9.027344 -8.445312 C 8.964844 -8.574219 8.964844 -8.703125 9.027344 -8.832031 L 9.027344 -9.222656 C 9.613281 -10.78125 10.132812 -12.210938 11.105469 -13.511719 C 11.433594 -14.09375 11.691406 -14.746094 11.886719 -15.328125 C 11.953125 -15.847656 12.144531 -16.367188 12.339844 -16.757812 C 12.730469 -17.277344 12.859375 -17.925781 13.054688 -18.578125 C 13.378906 -19.617188 13.316406 -20.65625 12.859375 -21.628906 C 12.40625 -22.667969 11.625 -23.578125 10.457031 -23.773438 C 9.09375 -23.96875 7.601562 -23.96875 6.496094 -22.929688 C 5.910156 -22.410156 5.261719 -21.953125 4.480469 -21.824219 C 4.613281 -22.605469 4.675781 -23.449219 4.804688 -24.226562 C 5.066406 -25.332031 4.9375 -26.4375 4.675781 -27.605469 C 4.546875 -28.515625 4.15625 -29.230469 3.378906 -29.75 C 3.183594 -29.8125 3.054688 -29.945312 2.988281 -30.074219 C 2.726562 -30.527344 2.339844 -30.527344 1.882812 -30.332031 C 1.429688 -30.203125 0.84375 -29.878906 0.261719 -29.878906 C -0.324219 -29.878906 -0.714844 -29.488281 -0.910156 -28.96875 C -1.558594 -27.539062 -1.949219 -26.113281 -1.820312 -24.488281 C -1.820312 -24.164062 -1.6875 -23.773438 -1.558594 -23.382812 C -1.105469 -22.085938 -0.390625 -20.851562 0.78125 -19.875 C 1.492188 -19.226562 2.273438 -18.578125 3.3125 -18.445312 C 3.507812 -18.445312 3.703125 -18.382812 3.898438 -18.316406 C 4.351562 -18.1875 4.417969 -17.925781 4.222656 -17.539062 C 4.027344 -17.148438 3.960938 -16.691406 3.832031 -16.238281 C 2.921875 -13.835938 3.246094 -11.367188 4.15625 -9.09375 C 4.804688 -7.601562 5.78125 -6.429688 7.273438 -5.976562 Z M 7.273438 -5.976562" transform="translate(438.528 79.375)"/></g></g></g><g><g><g><path d="M 14.875 0.84375 C 17.277344 0.648438 17.539062 0.78125 19.941406 0.648438 C 22.667969 0.519531 25.265625 -0.0664062 27.800781 -1.039062 C 28.125 -1.234375 28.449219 -1.363281 28.773438 -1.625 C 29.554688 -2.402344 29.292969 -2.339844 28.191406 -2.664062 C 27.671875 -2.792969 27.152344 -2.792969 26.632812 -2.792969 C 25.332031 -2.726562 24.097656 -2.597656 22.863281 -2.535156 C 22.410156 -2.535156 21.953125 -2.535156 21.5 -2.664062 C 21.109375 -2.792969 20.914062 -2.988281 20.980469 -3.507812 C 21.109375 -3.832031 21.109375 -4.222656 21.109375 -4.613281 C 21.046875 -5.652344 20.71875 -6.625 21.238281 -7.601562 C 21.371094 -7.859375 21.238281 -8.25 21.238281 -8.640625 L 21.238281 -9.9375 C 21.371094 -12.082031 21.433594 -15.523438 21.5 -17.601562 L 21.890625 -19.746094 C 21.953125 -20.007812 21.890625 -20.265625 21.757812 -20.527344 C 21.304688 -21.304688 21.433594 -22.085938 21.628906 -22.929688 C 21.890625 -24.421875 22.28125 -25.917969 22.214844 -27.476562 C 22.148438 -29.230469 22.410156 -33.515625 22.667969 -35.335938 C 22.863281 -36.699219 22.992188 -37.867188 23.449219 -38.777344 C 24.164062 -40.335938 25.007812 -41.699219 27.019531 -41.570312 C 27.152344 -41.570312 27.347656 -41.699219 27.539062 -41.765625 C 28.710938 -42.285156 29.425781 -43.453125 29.097656 -44.492188 C 28.578125 -46.246094 27.019531 -44.949219 25.074219 -44.882812 C 23.839844 -44.882812 22.667969 -44.753906 21.433594 -44.882812 C 20.070312 -45.011719 20.589844 -45.078125 19.160156 -45.207031 C 17.992188 -45.273438 17.148438 -45.273438 16.109375 -44.558594 C 14.875 -43.714844 13.574219 -43.777344 12.277344 -44.234375 C 11.300781 -44.625 10.394531 -44.820312 9.351562 -44.820312 C 8.507812 -44.820312 7.664062 -45.011719 7.078125 -44.234375 C 7.015625 -44.105469 6.820312 -44.105469 6.625 -44.039062 C 6.234375 -43.972656 6.039062 -43.777344 5.78125 -43.453125 C 5.261719 -42.804688 4.742188 -42.089844 3.832031 -42.027344 C 3.507812 -41.507812 3.054688 -41.765625 2.597656 -41.441406 C 2.597656 -41.179688 2.46875 -40.855469 2.859375 -40.921875 C 3.832031 -41.117188 4.675781 -40.792969 5.519531 -40.53125 C 6.234375 -40.335938 7.601562 -40.792969 8.378906 -40.597656 C 10.003906 -40.140625 10.976562 -40.207031 12.667969 -40.078125 C 13.121094 -40.011719 13.25 -39.753906 13.25 -39.363281 L 13.1875 -38.710938 C 12.859375 -35.464844 12.535156 -33.582031 12.210938 -30.398438 C 11.820312 -27.347656 11.757812 -24.292969 11.886719 -21.238281 C 12.015625 -18.835938 12.277344 -16.433594 12.40625 -14.09375 C 12.601562 -10.847656 12.601562 -7.273438 13.511719 -5.457031 C 13.898438 -4.675781 13.640625 -4.285156 12.796875 -4.15625 C 11.625 -3.960938 10.78125 -4.871094 9.808594 -4.417969 C 8.964844 -4.027344 8.640625 -3.507812 8.832031 -2.597656 C 9.027344 -1.300781 9.742188 -1.558594 10.914062 -0.972656 C 11.820312 -0.585938 12.730469 -0.128906 13.445312 0.519531 C 13.898438 0.84375 14.355469 0.910156 14.875 0.84375 Z M 14.875 0.84375" transform="translate(477.954 79.375)"/></g></g></g><g><g><g><path d="M 5.261719 -7.339844 C 6.039062 -7.078125 6.558594 -7.339844 6.949219 -8.054688 C 7.273438 -8.640625 7.535156 -9.222656 7.535156 -9.9375 C 8.378906 -11.625 9.09375 -13.378906 10.003906 -15.070312 C 10.585938 -16.238281 11.238281 -17.34375 12.015625 -18.382812 C 12.144531 -18.511719 12.277344 -18.773438 12.601562 -18.578125 C 12.601562 -17.925781 12.535156 -17.277344 12.601562 -16.5625 C 12.925781 -13.640625 14.550781 -11.496094 17.539062 -10.914062 C 18.253906 -10.847656 18.964844 -10.847656 19.617188 -11.171875 C 21.304688 -12.015625 22.28125 -12.667969 23.773438 -14.613281 C 24.683594 -15.847656 24.878906 -16.171875 25.785156 -18.121094 C 25.980469 -18.511719 26.4375 -19.226562 26.4375 -19.617188 C 26.4375 -20.527344 25.59375 -20.332031 25.460938 -20.199219 C 25.007812 -19.941406 24.03125 -17.539062 23.707031 -17.082031 C 22.148438 -14.941406 22.863281 -15.394531 21.433594 -13.964844 C 20.980469 -13.511719 20.136719 -13.25 19.617188 -12.859375 C 19.226562 -12.601562 18.707031 -12.339844 18.121094 -12.472656 C 17.601562 -12.601562 17.214844 -13.316406 17.214844 -13.835938 C 17.277344 -14.289062 17.277344 -14.679688 17.34375 -15.070312 C 17.601562 -16.171875 17.40625 -17.34375 17.925781 -18.511719 C 18.058594 -18.707031 18.121094 -19.03125 17.992188 -19.292969 C 17.734375 -20.007812 17.472656 -20.851562 16.757812 -21.238281 C 15.71875 -21.695312 14.746094 -22.34375 13.445312 -22.085938 L 13.1875 -22.019531 C 12.277344 -21.628906 11.433594 -21.175781 10.78125 -20.460938 C 10.066406 -19.617188 9.289062 -18.835938 8.507812 -17.992188 C 8.507812 -18.707031 8.507812 -19.421875 8.445312 -20.136719 C 8.445312 -20.71875 8.378906 -21.371094 8.3125 -21.953125 C 8.183594 -22.539062 7.859375 -22.992188 7.339844 -23.320312 C 6.429688 -24.097656 5.261719 -24.359375 4.09375 -24.554688 C 3.574219 -24.617188 3.117188 -24.554688 2.597656 -24.359375 C 2.402344 -24.164062 2.144531 -24.03125 1.949219 -23.839844 C 1.820312 -23.707031 1.625 -23.449219 1.429688 -23.1875 C 1.167969 -22.605469 0.972656 -22.019531 0.78125 -21.371094 C 0.648438 -20.785156 0.585938 -20.136719 0.390625 -19.484375 C 0.195312 -18.964844 0.261719 -18.382812 0.128906 -17.863281 L 0.128906 -17.472656 C -0.0664062 -15.589844 -0.0664062 -13.707031 0.453125 -11.820312 C 0.648438 -10.976562 0.84375 -10.199219 1.363281 -9.613281 C 2.46875 -8.445312 3.765625 -7.730469 5.261719 -7.339844 Z M 5.261719 -7.339844" transform="translate(507.963 79.375)"/></g></g></g><g><g><g><path d="M 21.953125 -20.265625 C 20.980469 -19.746094 20.589844 -19.421875 20.332031 -18.253906 C 20.070312 -17.539062 19.679688 -16.824219 19.355469 -16.171875 C 18.835938 -15.199219 18.1875 -14.226562 17.667969 -13.316406 L 17.34375 -12.730469 C 16.691406 -11.496094 15.914062 -10.328125 14.875 -9.289062 C 14.160156 -8.507812 13.445312 -7.730469 12.601562 -7.144531 L 11.300781 -6.367188 C 10.78125 -6.105469 10.261719 -6.171875 9.808594 -6.558594 C 9.417969 -6.886719 9.027344 -7.210938 8.769531 -7.664062 C 8.378906 -8.378906 7.859375 -9.09375 7.988281 -9.9375 C 8.054688 -10.003906 7.988281 -10.066406 7.988281 -10.132812 C 7.730469 -10.976562 7.859375 -14.160156 7.792969 -14.679688 C 7.664062 -15.003906 7.664062 -15.265625 7.792969 -15.523438 C 8.121094 -16.433594 8.121094 -16.042969 8.054688 -17.019531 C 8.054688 -17.148438 8.054688 -17.34375 8.121094 -17.472656 C 8.507812 -18.316406 8.640625 -17.992188 8.507812 -18.964844 L 8.507812 -19.421875 C 8.640625 -20.460938 8.898438 -21.433594 8.703125 -22.472656 C 8.703125 -22.734375 8.769531 -22.863281 8.964844 -22.929688 C 9.09375 -22.992188 9.222656 -22.992188 9.351562 -22.992188 L 11.820312 -23.382812 C 12.796875 -23.511719 13.574219 -23.707031 14.484375 -23.96875 C 15.265625 -24.164062 15.589844 -24.8125 16.042969 -25.332031 C 16.238281 -25.527344 16.042969 -26.046875 15.847656 -26.113281 C 15.328125 -26.242188 14.875 -26.4375 14.355469 -26.5 C 13.378906 -26.761719 12.796875 -26.175781 11.820312 -26.242188 C 11.757812 -26.242188 11.105469 -25.785156 9.484375 -25.722656 C 9.09375 -25.722656 9.027344 -25.851562 9.09375 -26.242188 L 9.09375 -26.566406 C 9.351562 -27.539062 9.417969 -28.773438 9.417969 -29.8125 C 9.484375 -29.878906 9.484375 -30.074219 9.546875 -30.140625 C 9.9375 -30.660156 9.742188 -31.503906 10.261719 -31.894531 C 10.261719 -32.476562 10.585938 -32.933594 10.914062 -33.320312 C 11.171875 -33.582031 11.171875 -33.90625 10.976562 -34.101562 C 10.585938 -34.621094 10.328125 -35.269531 9.742188 -35.660156 L 9.289062 -36.050781 C 8.378906 -37.023438 7.144531 -37.480469 6.039062 -38 C 4.546875 -38.324219 3.765625 -38.128906 3.636719 -36.503906 L 3.636719 -36.375 C 3.703125 -35.917969 3.507812 -35.53125 3.441406 -35.074219 C 3.117188 -33.839844 2.792969 -32.605469 2.535156 -31.4375 L 2.144531 -29.621094 C 1.949219 -28.710938 1.820312 -27.734375 1.6875 -26.824219 C 1.6875 -26.371094 1.558594 -25.917969 1.492188 -25.460938 C 1.429688 -25.203125 1.300781 -25.136719 1.039062 -25.136719 C 0.453125 -25.074219 0.648438 -25.265625 0.261719 -25.136719 L -0.84375 -25.074219 C -1.6875 -25.074219 -1.6875 -25.074219 -2.144531 -24.421875 C -2.144531 -24.421875 -2.207031 -24.421875 -2.207031 -24.359375 C -2.339844 -24.164062 -2.339844 -23.902344 -2.078125 -23.773438 C -1.882812 -23.707031 -1.820312 -23.644531 -1.6875 -23.511719 C -1.558594 -23.449219 -1.429688 -23.449219 -1.363281 -23.382812 C -0.972656 -23.253906 0.78125 -23.320312 0.324219 -23.058594 C 1.167969 -23.058594 1.167969 -22.992188 1.105469 -22.148438 C 0.84375 -20.070312 0.648438 -19.292969 0.78125 -17.082031 C 0.84375 -16.433594 0.910156 -17.019531 0.910156 -16.367188 C 1.039062 -13.835938 2.144531 -10.78125 2.402344 -10.199219 C 2.664062 -9.613281 2.988281 -9.027344 3.246094 -8.378906 C 3.507812 -7.792969 4.09375 -7.40625 4.480469 -6.949219 C 4.871094 -6.625 5.328125 -6.367188 5.714844 -6.105469 C 6.367188 -5.652344 7.078125 -5.066406 7.730469 -4.742188 C 8.832031 -4.285156 9.9375 -4.027344 11.105469 -4.285156 C 12.601562 -4.546875 13.835938 -5.195312 14.746094 -6.429688 C 14.808594 -6.558594 14.941406 -6.625 15.003906 -6.691406 C 15.785156 -7.210938 16.824219 -9.222656 17.082031 -9.613281 C 17.214844 -9.875 17.40625 -10.199219 17.601562 -10.457031 C 18.316406 -11.367188 20.136719 -14.160156 20.394531 -14.417969 C 20.65625 -14.808594 20.785156 -15.132812 21.046875 -15.460938 C 21.824219 -17.148438 22.34375 -17.992188 22.800781 -18.835938 C 22.800781 -18.902344 22.929688 -18.902344 22.992188 -18.902344 C 23.058594 -19.03125 22.410156 -20.527344 21.953125 -20.265625 Z M 21.953125 -20.265625" transform="translate(533.944 79.375)"/></g></g></g><g><g><g><path d="M 5.976562 -6.625 C 6.820312 -6.234375 7.664062 -6.691406 8.445312 -6.691406 C 8.507812 -6.753906 8.640625 -6.753906 8.769531 -6.753906 C 9.351562 -6.949219 10.003906 -6.949219 10.457031 -7.015625 C 13.1875 -7.925781 17.34375 -12.40625 18.707031 -16.109375 C 18.707031 -16.304688 18.773438 -16.757812 19.746094 -18.578125 C 20.199219 -19.421875 19.875 -19.421875 19.550781 -19.746094 C 18.964844 -20.332031 18.773438 -19.941406 18.578125 -19.292969 C 18.511719 -18.964844 18.253906 -18.511719 18.058594 -18.253906 C 17.601562 -17.667969 17.214844 -16.886719 17.019531 -16.238281 C 14.808594 -11.5625 12.535156 -10.066406 10.261719 -9.160156 C 9.679688 -8.898438 9.289062 -8.898438 8.832031 -9.351562 C 8.445312 -10.132812 8.054688 -10.914062 7.925781 -11.757812 C 7.859375 -12.144531 8.445312 -13.1875 8.574219 -13.445312 C 9.808594 -15.070312 10.457031 -16.953125 11.691406 -18.578125 C 11.953125 -18.902344 12.144531 -19.421875 12.210938 -20.007812 C 12.472656 -21.109375 12.535156 -22.148438 12.796875 -23.320312 C 13.1875 -24.488281 12.730469 -25.398438 12.277344 -26.304688 C 11.820312 -27.019531 11.300781 -27.28125 10.585938 -27.28125 C 10.523438 -27.28125 10.394531 -27.214844 10.199219 -27.28125 C 10.066406 -27.214844 9.875 -27.347656 9.679688 -27.347656 C 6.753906 -27.671875 5.519531 -28.386719 2.597656 -23.902344 C 1.753906 -22.539062 0.910156 -21.5 0.453125 -20.136719 C -0.324219 -17.863281 -0.78125 -15.652344 -0.261719 -13.25 C 0.0664062 -10.78125 1.167969 -9.027344 2.792969 -7.792969 C 3.960938 -6.949219 5.132812 -6.886719 5.976562 -6.625 Z M 7.859375 -15.980469 C 7.859375 -16.367188 7.339844 -18.578125 7.40625 -18.902344 C 7.40625 -19.03125 7.535156 -19.160156 7.535156 -19.355469 C 7.535156 -20.332031 7.859375 -21.109375 8.25 -21.890625 C 8.445312 -22.539062 8.703125 -22.863281 9.027344 -23.382812 C 8.898438 -23.707031 10.199219 -24.488281 10.394531 -23.511719 C 10.847656 -21.238281 9.679688 -18.902344 8.898438 -16.824219 C 8.640625 -16.171875 7.859375 -15.328125 7.859375 -15.980469 Z M 7.859375 -15.980469" transform="translate(556.353 79.375)"/></g></g></g><g><g><g><path d="M 7.273438 -5.976562 C 9.875 -5.195312 12.472656 -5.195312 14.679688 -7.144531 C 15.132812 -7.535156 15.652344 -7.859375 16.109375 -8.3125 C 18.511719 -10.847656 19.097656 -12.015625 21.953125 -18.058594 C 22.410156 -19.03125 22.148438 -18.964844 21.628906 -19.292969 C 21.046875 -19.679688 20.980469 -19.160156 20.851562 -18.964844 C 18.316406 -13.378906 17.925781 -12.992188 17.214844 -11.953125 C 16.691406 -11.105469 16.171875 -10.394531 15.394531 -9.742188 C 13.378906 -8.183594 12.144531 -7.078125 9.546875 -7.730469 C 9.09375 -7.925781 8.964844 -8.183594 9.027344 -8.445312 C 8.964844 -8.574219 8.964844 -8.703125 9.027344 -8.832031 L 9.027344 -9.222656 C 9.613281 -10.78125 10.132812 -12.210938 11.105469 -13.511719 C 11.433594 -14.09375 11.691406 -14.746094 11.886719 -15.328125 C 11.953125 -15.847656 12.144531 -16.367188 12.339844 -16.757812 C 12.730469 -17.277344 12.859375 -17.925781 13.054688 -18.578125 C 13.378906 -19.617188 13.316406 -20.65625 12.859375 -21.628906 C 12.40625 -22.667969 11.625 -23.578125 10.457031 -23.773438 C 9.09375 -23.96875 7.601562 -23.96875 6.496094 -22.929688 C 5.910156 -22.410156 5.261719 -21.953125 4.480469 -21.824219 C 4.613281 -22.605469 4.675781 -23.449219 4.804688 -24.226562 C 5.066406 -25.332031 4.9375 -26.4375 4.675781 -27.605469 C 4.546875 -28.515625 4.15625 -29.230469 3.378906 -29.75 C 3.183594 -29.8125 3.054688 -29.945312 2.988281 -30.074219 C 2.726562 -30.527344 2.339844 -30.527344 1.882812 -30.332031 C 1.429688 -30.203125 0.84375 -29.878906 0.261719 -29.878906 C -0.324219 -29.878906 -0.714844 -29.488281 -0.910156 -28.96875 C -1.558594 -27.539062 -1.949219 -26.113281 -1.820312 -24.488281 C -1.820312 -24.164062 -1.6875 -23.773438 -1.558594 -23.382812 C -1.105469 -22.085938 -0.390625 -20.851562 0.78125 -19.875 C 1.492188 -19.226562 2.273438 -18.578125 3.3125 -18.445312 C 3.507812 -18.445312 3.703125 -18.382812 3.898438 -18.316406 C 4.351562 -18.1875 4.417969 -17.925781 4.222656 -17.539062 C 4.027344 -17.148438 3.960938 -16.691406 3.832031 -16.238281 C 2.921875 -13.835938 3.246094 -11.367188 4.15625 -9.09375 C 4.804688 -7.601562 5.78125 -6.429688 7.273438 -5.976562 Z M 7.273438 -5.976562" transform="translate(575.968 79.375)"/></g></g></g><g><g><g><path d="M 5.976562 -6.625 C 6.820312 -6.234375 7.664062 -6.691406 8.445312 -6.691406 C 8.507812 -6.753906 8.640625 -6.753906 8.769531 -6.753906 C 9.351562 -6.949219 10.003906 -6.949219 10.457031 -7.015625 C 13.1875 -7.925781 17.34375 -12.40625 18.707031 -16.109375 C 18.707031 -16.304688 18.773438 -16.757812 19.746094 -18.578125 C 20.199219 -19.421875 19.875 -19.421875 19.550781 -19.746094 C 18.964844 -20.332031 18.773438 -19.941406 18.578125 -19.292969 C 18.511719 -18.964844 18.253906 -18.511719 18.058594 -18.253906 C 17.601562 -17.667969 17.214844 -16.886719 17.019531 -16.238281 C 14.808594 -11.5625 12.535156 -10.066406 10.261719 -9.160156 C 9.679688 -8.898438 9.289062 -8.898438 8.832031 -9.351562 C 8.445312 -10.132812 8.054688 -10.914062 7.925781 -11.757812 C 7.859375 -12.144531 8.445312 -13.1875 8.574219 -13.445312 C 9.808594 -15.070312 10.457031 -16.953125 11.691406 -18.578125 C 11.953125 -18.902344 12.144531 -19.421875 12.210938 -20.007812 C 12.472656 -21.109375 12.535156 -22.148438 12.796875 -23.320312 C 13.1875 -24.488281 12.730469 -25.398438 12.277344 -26.304688 C 11.820312 -27.019531 11.300781 -27.28125 10.585938 -27.28125 C 10.523438 -27.28125 10.394531 -27.214844 10.199219 -27.28125 C 10.066406 -27.214844 9.875 -27.347656 9.679688 -27.347656 C 6.753906 -27.671875 5.519531 -28.386719 2.597656 -23.902344 C 1.753906 -22.539062 0.910156 -21.5 0.453125 -20.136719 C -0.324219 -17.863281 -0.78125 -15.652344 -0.261719 -13.25 C 0.0664062 -10.78125 1.167969 -9.027344 2.792969 -7.792969 C 3.960938 -6.949219 5.132812 -6.886719 5.976562 -6.625 Z M 7.859375 -15.980469 C 7.859375 -16.367188 7.339844 -18.578125 7.40625 -18.902344 C 7.40625 -19.03125 7.535156 -19.160156 7.535156 -19.355469 C 7.535156 -20.332031 7.859375 -21.109375 8.25 -21.890625 C 8.445312 -22.539062 8.703125 -22.863281 9.027344 -23.382812 C 8.898438 -23.707031 10.199219 -24.488281 10.394531 -23.511719 C 10.847656 -21.238281 9.679688 -18.902344 8.898438 -16.824219 C 8.640625 -16.171875 7.859375 -15.328125 7.859375 -15.980469 Z M 7.859375 -15.980469" transform="translate(597.078 79.375)"/></g></g></g><g><g><g><path d="M 5.78125 -1.753906 C 6.039062 -1.625 6.429688 -1.558594 6.625 -1.753906 C 7.40625 -2.273438 8.25 -2.792969 8.507812 -3.832031 C 8.640625 -4.15625 8.832031 -4.546875 8.898438 -4.804688 C 9.222656 -5.847656 9.546875 -6.820312 9.351562 -7.792969 C 9.222656 -9.289062 9.160156 -10.199219 8.769531 -11.5625 C 8.769531 -11.691406 8.898438 -12.277344 8.769531 -12.339844 C 8.832031 -12.992188 9.027344 -14.03125 9.546875 -14.550781 C 10.585938 -15.589844 10.847656 -15.980469 12.015625 -16.757812 C 13.445312 -17.734375 14.417969 -18.835938 16.042969 -20.199219 C 16.433594 -20.527344 16.433594 -20.785156 16.367188 -21.109375 C 16.304688 -21.433594 16.109375 -21.824219 15.847656 -21.628906 C 13.378906 -19.484375 12.277344 -18.707031 11.5625 -18.1875 C 9.417969 -16.628906 9.289062 -16.171875 8.507812 -15.71875 C 7.925781 -15.394531 7.535156 -15.914062 7.535156 -16.238281 C 7.40625 -16.5 7.339844 -16.691406 7.210938 -16.824219 C 7.078125 -17.148438 6.949219 -17.40625 6.820312 -17.796875 C 6.300781 -19.160156 6.886719 -21.5 7.210938 -22.472656 C 7.730469 -24.03125 8.574219 -25.917969 8.25 -27.085938 C 8.121094 -27.734375 7.40625 -27.800781 6.300781 -28.320312 C 4.871094 -29.035156 3.574219 -29.359375 2.144531 -28.90625 C 0.84375 -28.515625 0.324219 -28.320312 -0.585938 -27.476562 C -0.78125 -27.28125 -0.972656 -27.152344 -0.972656 -26.890625 C -0.910156 -25.074219 -1.625 -23.382812 -1.105469 -21.566406 C -0.910156 -20.914062 -0.910156 -20.199219 -0.910156 -19.617188 C -0.324219 -17.992188 0.585938 -16.5 1.6875 -15.199219 C 1.949219 -15.199219 2.144531 -15.003906 2.46875 -14.808594 L 3.765625 -13.640625 C 4.222656 -13.25 4.742188 -13.1875 5.261719 -12.992188 C 5.78125 -12.472656 5.78125 -12.144531 5.390625 -11.496094 C 5.195312 -11.042969 4.9375 -10.652344 4.804688 -10.199219 C 4.222656 -8.25 3.507812 -6.367188 3.507812 -4.285156 C 3.378906 -4.09375 3.378906 -3.765625 3.378906 -3.441406 C 3.441406 -3.246094 3.636719 -2.921875 3.832031 -2.792969 C 4.546875 -2.207031 5.195312 -2.144531 5.78125 -1.753906 Z M 5.585938 -3.574219 C 5 -4.09375 4.804688 -4.613281 4.871094 -5.390625 C 4.9375 -7.015625 5.585938 -8.574219 6.367188 -9.9375 C 6.429688 -10.003906 6.625 -10.394531 6.820312 -10.066406 C 7.273438 -8.25 7.273438 -6.300781 6.886719 -4.351562 L 6.625 -3.832031 C 6.367188 -3.246094 6.039062 -3.246094 5.585938 -3.574219 Z M 5.585938 -3.574219" transform="translate(616.694 79.375)"/></g></g></g><g><g><g><path d="M 21.953125 -20.265625 C 20.980469 -19.746094 20.589844 -19.421875 20.332031 -18.253906 C 20.070312 -17.539062 19.679688 -16.824219 19.355469 -16.171875 C 18.835938 -15.199219 18.1875 -14.226562 17.667969 -13.316406 L 17.34375 -12.730469 C 16.691406 -11.496094 15.914062 -10.328125 14.875 -9.289062 C 14.160156 -8.507812 13.445312 -7.730469 12.601562 -7.144531 L 11.300781 -6.367188 C 10.78125 -6.105469 10.261719 -6.171875 9.808594 -6.558594 C 9.417969 -6.886719 9.027344 -7.210938 8.769531 -7.664062 C 8.378906 -8.378906 7.859375 -9.09375 7.988281 -9.9375 C 8.054688 -10.003906 7.988281 -10.066406 7.988281 -10.132812 C 7.730469 -10.976562 7.859375 -14.160156 7.792969 -14.679688 C 7.664062 -15.003906 7.664062 -15.265625 7.792969 -15.523438 C 8.121094 -16.433594 8.121094 -16.042969 8.054688 -17.019531 C 8.054688 -17.148438 8.054688 -17.34375 8.121094 -17.472656 C 8.507812 -18.316406 8.640625 -17.992188 8.507812 -18.964844 L 8.507812 -19.421875 C 8.640625 -20.460938 8.898438 -21.433594 8.703125 -22.472656 C 8.703125 -22.734375 8.769531 -22.863281 8.964844 -22.929688 C 9.09375 -22.992188 9.222656 -22.992188 9.351562 -22.992188 L 11.820312 -23.382812 C 12.796875 -23.511719 13.574219 -23.707031 14.484375 -23.96875 C 15.265625 -24.164062 15.589844 -24.8125 16.042969 -25.332031 C 16.238281 -25.527344 16.042969 -26.046875 15.847656 -26.113281 C 15.328125 -26.242188 14.875 -26.4375 14.355469 -26.5 C 13.378906 -26.761719 12.796875 -26.175781 11.820312 -26.242188 C 11.757812 -26.242188 11.105469 -25.785156 9.484375 -25.722656 C 9.09375 -25.722656 9.027344 -25.851562 9.09375 -26.242188 L 9.09375 -26.566406 C 9.351562 -27.539062 9.417969 -28.773438 9.417969 -29.8125 C 9.484375 -29.878906 9.484375 -30.074219 9.546875 -30.140625 C 9.9375 -30.660156 9.742188 -31.503906 10.261719 -31.894531 C 10.261719 -32.476562 10.585938 -32.933594 10.914062 -33.320312 C 11.171875 -33.582031 11.171875 -33.90625 10.976562 -34.101562 C 10.585938 -34.621094 10.328125 -35.269531 9.742188 -35.660156 L 9.289062 -36.050781 C 8.378906 -37.023438 7.144531 -37.480469 6.039062 -38 C 4.546875 -38.324219 3.765625 -38.128906 3.636719 -36.503906 L 3.636719 -36.375 C 3.703125 -35.917969 3.507812 -35.53125 3.441406 -35.074219 C 3.117188 -33.839844 2.792969 -32.605469 2.535156 -31.4375 L 2.144531 -29.621094 C 1.949219 -28.710938 1.820312 -27.734375 1.6875 -26.824219 C 1.6875 -26.371094 1.558594 -25.917969 1.492188 -25.460938 C 1.429688 -25.203125 1.300781 -25.136719 1.039062 -25.136719 C 0.453125 -25.074219 0.648438 -25.265625 0.261719 -25.136719 L -0.84375 -25.074219 C -1.6875 -25.074219 -1.6875 -25.074219 -2.144531 -24.421875 C -2.144531 -24.421875 -2.207031 -24.421875 -2.207031 -24.359375 C -2.339844 -24.164062 -2.339844 -23.902344 -2.078125 -23.773438 C -1.882812 -23.707031 -1.820312 -23.644531 -1.6875 -23.511719 C -1.558594 -23.449219 -1.429688 -23.449219 -1.363281 -23.382812 C -0.972656 -23.253906 0.78125 -23.320312 0.324219 -23.058594 C 1.167969 -23.058594 1.167969 -22.992188 1.105469 -22.148438 C 0.84375 -20.070312 0.648438 -19.292969 0.78125 -17.082031 C 0.84375 -16.433594 0.910156 -17.019531 0.910156 -16.367188 C 1.039062 -13.835938 2.144531 -10.78125 2.402344 -10.199219 C 2.664062 -9.613281 2.988281 -9.027344 3.246094 -8.378906 C 3.507812 -7.792969 4.09375 -7.40625 4.480469 -6.949219 C 4.871094 -6.625 5.328125 -6.367188 5.714844 -6.105469 C 6.367188 -5.652344 7.078125 -5.066406 7.730469 -4.742188 C 8.832031 -4.285156 9.9375 -4.027344 11.105469 -4.285156 C 12.601562 -4.546875 13.835938 -5.195312 14.746094 -6.429688 C 14.808594 -6.558594 14.941406 -6.625 15.003906 -6.691406 C 15.785156 -7.210938 16.824219 -9.222656 17.082031 -9.613281 C 17.214844 -9.875 17.40625 -10.199219 17.601562 -10.457031 C 18.316406 -11.367188 20.136719 -14.160156 20.394531 -14.417969 C 20.65625 -14.808594 20.785156 -15.132812 21.046875 -15.460938 C 21.824219 -17.148438 22.34375 -17.992188 22.800781 -18.835938 C 22.800781 -18.902344 22.929688 -18.902344 22.992188 -18.902344 C 23.058594 -19.03125 22.410156 -20.527344 21.953125 -20.265625 Z M 21.953125 -20.265625" transform="translate(632.802 79.375)"/></g></g></g><g><g><g><path d="M 5.78125 -1.753906 C 6.039062 -1.625 6.429688 -1.558594 6.625 -1.753906 C 7.40625 -2.273438 8.25 -2.792969 8.507812 -3.832031 C 8.640625 -4.15625 8.832031 -4.546875 8.898438 -4.804688 C 9.222656 -5.847656 9.546875 -6.820312 9.351562 -7.792969 C 9.222656 -9.289062 9.160156 -10.199219 8.769531 -11.5625 C 8.769531 -11.691406 8.898438 -12.277344 8.769531 -12.339844 C 8.832031 -12.992188 9.027344 -14.03125 9.546875 -14.550781 C 10.585938 -15.589844 10.847656 -15.980469 12.015625 -16.757812 C 13.445312 -17.734375 14.417969 -18.835938 16.042969 -20.199219 C 16.433594 -20.527344 16.433594 -20.785156 16.367188 -21.109375 C 16.304688 -21.433594 16.109375 -21.824219 15.847656 -21.628906 C 13.378906 -19.484375 12.277344 -18.707031 11.5625 -18.1875 C 9.417969 -16.628906 9.289062 -16.171875 8.507812 -15.71875 C 7.925781 -15.394531 7.535156 -15.914062 7.535156 -16.238281 C 7.40625 -16.5 7.339844 -16.691406 7.210938 -16.824219 C 7.078125 -17.148438 6.949219 -17.40625 6.820312 -17.796875 C 6.300781 -19.160156 6.886719 -21.5 7.210938 -22.472656 C 7.730469 -24.03125 8.574219 -25.917969 8.25 -27.085938 C 8.121094 -27.734375 7.40625 -27.800781 6.300781 -28.320312 C 4.871094 -29.035156 3.574219 -29.359375 2.144531 -28.90625 C 0.84375 -28.515625 0.324219 -28.320312 -0.585938 -27.476562 C -0.78125 -27.28125 -0.972656 -27.152344 -0.972656 -26.890625 C -0.910156 -25.074219 -1.625 -23.382812 -1.105469 -21.566406 C -0.910156 -20.914062 -0.910156 -20.199219 -0.910156 -19.617188 C -0.324219 -17.992188 0.585938 -16.5 1.6875 -15.199219 C 1.949219 -15.199219 2.144531 -15.003906 2.46875 -14.808594 L 3.765625 -13.640625 C 4.222656 -13.25 4.742188 -13.1875 5.261719 -12.992188 C 5.78125 -12.472656 5.78125 -12.144531 5.390625 -11.496094 C 5.195312 -11.042969 4.9375 -10.652344 4.804688 -10.199219 C 4.222656 -8.25 3.507812 -6.367188 3.507812 -4.285156 C 3.378906 -4.09375 3.378906 -3.765625 3.378906 -3.441406 C 3.441406 -3.246094 3.636719 -2.921875 3.832031 -2.792969 C 4.546875 -2.207031 5.195312 -2.144531 5.78125 -1.753906 Z M 5.585938 -3.574219 C 5 -4.09375 4.804688 -4.613281 4.871094 -5.390625 C 4.9375 -7.015625 5.585938 -8.574219 6.367188 -9.9375 C 6.429688 -10.003906 6.625 -10.394531 6.820312 -10.066406 C 7.273438 -8.25 7.273438 -6.300781 6.886719 -4.351562 L 6.625 -3.832031 C 6.367188 -3.246094 6.039062 -3.246094 5.585938 -3.574219 Z M 5.585938 -3.574219" transform="translate(655.21 79.375)"/></g></g></g></svg>